<svg width="204" height="180" fill="none" xmlns="http://www.w3.org/2000/svg"><g clip-path="url(#clip0_669_197512)"><path d="M177.599 42.996v4.702l2.939 1.764m-2.939-11.756c-5.518 0-9.992 4.474-9.992 9.992 0 5.519 4.474 9.992 9.992 9.992 5.519 0 9.992-4.473 9.992-9.992 0-5.518-4.473-9.992-9.992-9.992zm0 0V34.18m-2.351 0h4.703m7.439 4.222l-1.763-1.763.882.882m-18.701.881l1.764-1.763-.882.882" stroke="#080957" stroke-width="1.447" stroke-linecap="round" stroke-linejoin="round"/></g><path d="M191.136 155.739c0 .665-.293 1.334-.893 2.005-.601.672-1.5 1.332-2.677 1.969-2.355 1.274-5.78 2.428-10.032 3.401-8.502 1.944-20.259 3.149-33.255 3.149-12.995 0-24.752-1.205-33.254-3.149-4.253-.973-7.677-2.127-10.032-3.401-1.178-.637-2.076-1.297-2.677-1.969-.6-.671-.894-1.34-.894-2.005 0-.664.294-1.333.894-2.004.6-.672 1.5-1.332 2.677-1.969 2.355-1.274 5.779-2.428 10.032-3.401 8.502-1.945 20.259-3.15 33.254-3.15 12.996 0 24.753 1.205 33.255 3.15 4.252.973 7.677 2.127 10.032 3.401 1.177.637 2.076 1.297 2.677 1.969.6.671.893 1.34.893 2.004z" stroke="#FF6D02" stroke-width=".501"/><path d="M191.136 144.716c0 .665-.293 1.334-.893 2.004-.601.672-1.5 1.333-2.677 1.97-2.355 1.273-5.78 2.428-10.032 3.401-8.502 1.944-20.259 3.149-33.255 3.149-12.995 0-24.752-1.205-33.254-3.149-4.253-.973-7.677-2.128-10.032-3.401-1.178-.637-2.076-1.298-2.677-1.97-.6-.67-.894-1.339-.894-2.004s.294-1.334.894-2.004c.6-.672 1.5-1.333 2.677-1.97 2.355-1.273 5.779-2.428 10.032-3.401 8.502-1.944 20.259-3.149 33.254-3.149 12.996 0 24.753 1.205 33.255 3.149 4.252.973 7.677 2.128 10.032 3.401 1.177.637 2.076 1.298 2.677 1.97.6.67.893 1.339.893 2.004z" stroke="#FF6D02" stroke-width=".501"/><path d="M191.136 133.689c0 .664-.293 1.334-.893 2.004-.601.672-1.5 1.332-2.677 1.969-2.355 1.274-5.78 2.428-10.032 3.401-8.502 1.945-20.259 3.15-33.255 3.15-12.995 0-24.752-1.205-33.254-3.15-4.253-.973-7.677-2.127-10.032-3.401-1.178-.637-2.076-1.297-2.677-1.969-.6-.67-.894-1.34-.894-2.004 0-.665.294-1.334.894-2.005.6-.672 1.5-1.332 2.677-1.969 2.355-1.273 5.779-2.428 10.032-3.401 8.502-1.944 20.259-3.149 33.254-3.149 12.996 0 24.753 1.205 33.255 3.149 4.252.973 7.677 2.128 10.032 3.401 1.177.637 2.076 1.297 2.677 1.969.6.671.893 1.34.893 2.005z" stroke="#FF6D02" stroke-width=".501"/><path d="M191.136 122.665c0 .665-.293 1.334-.893 2.005-.601.672-1.5 1.332-2.677 1.969-2.355 1.273-5.78 2.428-10.032 3.401-8.502 1.944-20.259 3.149-33.255 3.149-12.995 0-24.752-1.205-33.254-3.149-4.253-.973-7.677-2.128-10.032-3.401-1.178-.637-2.076-1.297-2.677-1.969-.6-.671-.894-1.34-.894-2.005 0-.664.294-1.334.894-2.004.6-.672 1.5-1.332 2.677-1.969 2.355-1.274 5.779-2.429 10.032-3.401 8.502-1.945 20.259-3.15 33.254-3.15 12.996 0 24.753 1.205 33.255 3.15 4.252.972 7.677 2.127 10.032 3.401 1.177.637 2.076 1.297 2.677 1.969.6.67.893 1.34.893 2.004z" stroke="#FF6D02" stroke-width=".501"/><path d="M191.136 111.638c0 .664-.293 1.334-.893 2.004-.601.672-1.5 1.333-2.677 1.969-2.355 1.274-5.78 2.429-10.032 3.401-8.502 1.945-20.259 3.15-33.255 3.15-12.995 0-24.752-1.205-33.254-3.15-4.253-.972-7.677-2.127-10.032-3.401-1.178-.636-2.076-1.297-2.677-1.969-.6-.67-.894-1.34-.894-2.004 0-.665.294-1.334.894-2.005.6-.672 1.5-1.332 2.677-1.969 2.355-1.273 5.779-2.428 10.032-3.401 8.502-1.944 20.259-3.149 33.254-3.149 12.996 0 24.753 1.205 33.255 3.149 4.252.973 7.677 2.128 10.032 3.401 1.177.637 2.076 1.297 2.677 1.969.6.671.893 1.34.893 2.005z" stroke="#FF6D02" stroke-width=".501"/><path d="M191.136 100.614c0 .665-.293 1.334-.893 2.005-.601.672-1.5 1.332-2.677 1.969-2.355 1.274-5.78 2.428-10.032 3.401-8.502 1.944-20.259 3.149-33.255 3.149-12.995 0-24.752-1.205-33.254-3.149-4.253-.973-7.677-2.127-10.032-3.401-1.178-.637-2.076-1.297-2.677-1.969-.6-.671-.894-1.34-.894-2.005 0-.664.294-1.333.894-2.004.6-.672 1.5-1.332 2.677-1.97 2.355-1.273 5.779-2.427 10.032-3.4 8.502-1.945 20.259-3.15 33.254-3.15 12.996 0 24.753 1.205 33.255 3.15 4.252.973 7.677 2.127 10.032 3.4 1.177.638 2.076 1.298 2.677 1.97.6.67.893 1.34.893 2.004z" stroke="#FF6D02" stroke-width=".501"/><path d="M191.136 89.587c0 .665-.293 1.334-.893 2.004-.601.672-1.5 1.333-2.677 1.97-2.355 1.273-5.78 2.428-10.032 3.4-8.502 1.945-20.259 3.15-33.255 3.15-12.995 0-24.752-1.205-33.254-3.15-4.253-.972-7.677-2.127-10.032-3.4-1.178-.637-2.076-1.298-2.677-1.97-.6-.67-.894-1.34-.894-2.004 0-.665.294-1.334.894-2.004.6-.672 1.5-1.333 2.677-1.97 2.355-1.273 5.779-2.428 10.032-3.4 8.502-1.945 20.259-3.15 33.254-3.15 12.996 0 24.753 1.205 33.255 3.15 4.252.972 7.677 2.127 10.032 3.4 1.177.637 2.076 1.298 2.677 1.97.6.67.893 1.34.893 2.004z" stroke="#FF6D02" stroke-width=".501"/><path d="M191.136 78.564c0 .664-.293 1.334-.893 2.004-.601.672-1.5 1.332-2.677 1.97-2.355 1.273-5.78 2.428-10.032 3.4-8.502 1.945-20.259 3.15-33.255 3.15-12.995 0-24.752-1.205-33.254-3.15-4.253-.972-7.677-2.127-10.032-3.4-1.178-.638-2.076-1.298-2.677-1.97-.6-.67-.894-1.34-.894-2.004 0-.665.294-1.334.894-2.005.6-.672 1.5-1.332 2.677-1.969 2.355-1.273 5.779-2.428 10.032-3.4 8.502-1.945 20.259-3.15 33.254-3.15 12.996 0 24.753 1.205 33.255 3.15 4.252.972 7.677 2.127 10.032 3.4 1.177.637 2.076 1.297 2.677 1.97.6.67.893 1.34.893 2.004z" stroke="#FF6D02" stroke-width=".501"/><path d="M53.585 35.399s74.159.02 71.89.568c-2.268.549-7.723 3.11-9.111 6.721" stroke="#080957" stroke-width="1.132" stroke-linecap="round"/><path d="M53.587 35.398l71.89.569c-2.447-.774-7.673-3.23-9.003-6.864" stroke="#080957" stroke-width="1.132" stroke-linecap="round"/><path d="M31.268 53.758V90.34m13.72-32.01l-27.44 27.438M49.56 72.05H12.977m32.01 13.718L17.55 58.331" stroke="#FF6D02" stroke-width="2.286" stroke-linecap="round" stroke-linejoin="round"/><rect x="56.329" y="46.489" width="97.222" height="110.252" rx="5.262" fill="#fff" stroke="#080957" stroke-width=".501"/><path d="M56.329 51.75a5.262 5.262 0 015.262-5.261h86.698a5.262 5.262 0 015.262 5.262v15.285H56.329V51.75z" fill="#080957" stroke="#080957" stroke-width=".501"/><circle cx="69.11" cy="57.262" r="3.508" fill="#fff"/><circle cx="79.633" cy="57.262" r="3.508" fill="#fff"/><circle cx="90.156" cy="57.262" r="3.508" fill="#fff"/><path d="M45.047 95.352v53.622c0 9.687 7.853 17.54 17.54 17.54h33.075" stroke="#080957" stroke-width=".501"/><circle cx="44.802" cy="95.603" r="2.255" fill="#080957"/><circle cx="93.91" cy="166.262" r="1.754" fill="#080957"/><path d="M108.773 98.236a10.498 10.498 0 01-6.117 1.953c-5.826 0-10.55-4.723-10.55-10.55 0-5.826 4.724-10.55 10.55-10.55 3.777 0 7.09 1.985 8.954 4.969m-25.532 49.55h7.868c1.026 0 2.046.122 3.04.366l8.313 2.02a12.88 12.88 0 005.506.128l9.192-1.788a12.676 12.676 0 006.412-3.338l6.503-6.327a4.53 4.53 0 000-6.536c-1.672-1.627-4.32-1.81-6.211-.431l-7.579 5.53a6.38 6.38 0 01-3.765 1.221h-7.319 4.659c2.625 0 4.752-2.069 4.752-4.624v-.924c0-2.121-1.483-3.971-3.598-4.483l-7.19-1.749a15.144 15.144 0 00-3.573-.427c-2.908 0-8.172 2.408-8.172 2.408l-8.838 3.695m42.199-25.695c0 5.826-4.723 10.549-10.55 10.549-5.826 0-10.549-4.723-10.549-10.55 0-5.826 4.723-10.549 10.549-10.549 5.827 0 10.55 4.723 10.55 10.55zm-54.255 24.415v17.482c0 1.688 0 2.532.328 3.177.289.567.75 1.028 1.317 1.317.645.329 1.49.329 3.177.329h2.412c1.688 0 2.532 0 3.176-.329a3.015 3.015 0 001.318-1.317c.328-.645.328-1.489.328-3.177v-17.482c0-1.689 0-2.533-.328-3.177a3.012 3.012 0 00-1.318-1.318c-.644-.328-1.488-.328-3.177-.328h-2.41c-1.689 0-2.533 0-3.178.328a3.012 3.012 0 00-1.317 1.318c-.328.644-.328 1.488-.328 3.177z" stroke="#080957" stroke-width="1.447" stroke-linecap="round" stroke-linejoin="round"/><defs><clipPath id="clip0_669_197512"><path fill="#fff" transform="translate(163.492 31.828)" d="M0 0h28.213v28.213H0z"/></clipPath></defs></svg>