<svg width="204" height="181" fill="none" xmlns="http://www.w3.org/2000/svg"><path fill="#080957" d="M61.023 90.863h77.057v4.009H61.023zm0 7.125h46.323v2.227H61.023zm0 5.348h40.533v2.227H61.023z"/><rect x="61.246" y="53.672" width="77.057" height="20.934" rx="5.568" fill="#fff" stroke="#080957" stroke-width=".445"/><path d="M69.532 67.133v-.698h1.283v-3.992l-1.003.625-.336-.617 1.58-.97h.584v4.954h1.203v.698h-3.311zm4.55 0v-.617l1.885-2.02c.262-.284.449-.54.56-.77.118-.23.177-.463.177-.698 0-.61-.358-.914-1.074-.914-.545 0-1.034.206-1.467.617l-.297-.633c.214-.209.487-.374.818-.497a2.84 2.84 0 011.034-.193c.583 0 1.03.134 1.34.401.314.268.472.65.472 1.147 0 .336-.083.665-.248.986-.16.32-.415.663-.762 1.026l-1.395 1.467h2.63v.698h-3.672zm6.444.072c-.38 0-.74-.056-1.083-.168a2.437 2.437 0 01-.858-.49l.289-.64c.251.202.51.352.778.448.267.096.55.144.85.144.384 0 .676-.082.873-.248.204-.166.305-.404.305-.714 0-.31-.102-.54-.305-.69-.197-.149-.486-.224-.865-.224h-.874v-.697h.793c.337 0 .602-.086.794-.257.198-.17.297-.406.297-.705 0-.273-.091-.481-.273-.626-.182-.15-.44-.224-.778-.224-.572 0-1.071.206-1.499.617l-.288-.633c.219-.22.491-.388.817-.505a2.95 2.95 0 011.035-.185c.566 0 1.007.131 1.322.393.316.257.473.615.473 1.075 0 .31-.08.582-.24.817a1.324 1.324 0 01-.65.513c.337.086.597.252.778.498.182.24.273.537.273.89 0 .497-.177.89-.53 1.178-.347.289-.825.433-1.434.433zm7.514-.072v-1.147H85.5v-.617l2.686-3.889h.681v3.809h.826v.697h-.826v1.147h-.826zm0-1.844v-2.51l-1.715 2.51h1.715zm4.383 1.916c-.364 0-.716-.056-1.059-.168a2.363 2.363 0 01-.841-.49l.28-.64c.492.395 1.026.592 1.604.592.368 0 .657-.098.866-.296.208-.203.312-.468.312-.794 0-.337-.099-.612-.296-.826-.198-.213-.473-.32-.826-.32-.497 0-.895.205-1.195.617h-.577v-3.4h3.367v.698h-2.557v1.788c.299-.262.678-.393 1.138-.393.358 0 .668.075.93.224.262.15.465.361.61.634.144.267.216.58.216.938 0 .363-.08.684-.24.962a1.68 1.68 0 01-.682.641c-.294.156-.644.233-1.05.233zm4.807 0a3.38 3.38 0 01-1.058-.168 2.362 2.362 0 01-.842-.49l.28-.64c.492.395 1.027.592 1.604.592.369 0 .657-.098.866-.296.208-.203.313-.468.313-.794 0-.337-.1-.612-.297-.826-.198-.213-.473-.32-.826-.32-.497 0-.895.205-1.194.617h-.578v-3.4h3.368v.698h-2.558v1.788c.3-.262.679-.393 1.138-.393.359 0 .669.075.93.224.262.15.466.361.61.634.144.267.216.58.216.938 0 .363-.08.684-.24.962-.16.273-.388.486-.682.641-.294.156-.644.233-1.05.233zm6.914 0c-.364 0-.717-.056-1.059-.168a2.374 2.374 0 01-.842-.49l.281-.64c.492.395 1.026.592 1.604.592.368 0 .657-.098.865-.296.209-.203.313-.468.313-.794 0-.337-.099-.612-.297-.826-.197-.213-.473-.32-.825-.32-.497 0-.896.205-1.195.617h-.577v-3.4h3.367v.698h-2.557v1.788c.299-.262.678-.393 1.138-.393.358 0 .668.075.93.224.262.15.465.361.609.634.145.267.217.58.217.938 0 .363-.08.684-.241.962-.16.273-.387.486-.681.641-.294.156-.644.233-1.05.233zm4.807 0a3.37 3.37 0 01-1.058-.168 2.357 2.357 0 01-.842-.49l.28-.64c.492.395 1.027.592 1.604.592.369 0 .657-.098.866-.296.208-.203.312-.468.312-.794 0-.337-.098-.612-.296-.826-.198-.213-.473-.32-.826-.32-.497 0-.895.205-1.195.617h-.577v-3.4h3.367v.698h-2.557v1.788c.299-.262.679-.393 1.138-.393.359 0 .669.075.93.224.262.15.465.361.61.634.144.267.216.58.216.938 0 .363-.08.684-.24.962a1.686 1.686 0 01-.682.641c-.294.156-.644.233-1.05.233zm4.807 0a3.38 3.38 0 01-1.058-.168 2.365 2.365 0 01-.842-.49l.281-.64c.491.395 1.026.592 1.603.592.369 0 .658-.098.866-.296.209-.203.313-.468.313-.794 0-.337-.099-.612-.297-.826-.198-.213-.473-.32-.826-.32-.497 0-.895.205-1.194.617h-.577v-3.4h3.367v.698h-2.558v1.788c.3-.262.679-.393 1.139-.393.358 0 .668.075.93.224.262.15.465.361.609.634.144.267.217.58.217.938 0 .363-.081.684-.241.962-.16.273-.387.486-.681.641-.294.156-.645.233-1.051.233zm6.914 0a3.38 3.38 0 01-1.059-.168 2.36 2.36 0 01-.841-.49l.28-.64c.492.395 1.026.592 1.604.592.369 0 .657-.098.866-.296.208-.203.312-.468.312-.794 0-.337-.099-.612-.296-.826-.198-.213-.473-.32-.826-.32-.497 0-.895.205-1.195.617h-.577v-3.4h3.367v.698h-2.557v1.788c.299-.262.679-.393 1.138-.393.358 0 .668.075.93.224.262.15.465.361.61.634.144.267.216.58.216.938 0 .363-.08.684-.24.962a1.686 1.686 0 01-.682.641c-.294.156-.644.233-1.05.233zm4.807 0a3.38 3.38 0 01-1.058-.168 2.357 2.357 0 01-.842-.49l.281-.64c.491.395 1.026.592 1.603.592.369 0 .658-.098.866-.296.208-.203.313-.468.313-.794 0-.337-.099-.612-.297-.826-.198-.213-.473-.32-.826-.32-.497 0-.895.205-1.194.617h-.578v-3.4h3.368v.698h-2.558v1.788c.299-.262.679-.393 1.139-.393.358 0 .668.075.93.224.262.15.465.361.609.634.144.267.216.58.216.938 0 .363-.08.684-.24.962a1.68 1.68 0 01-.682.641c-.294.156-.644.233-1.05.233zm4.807 0a3.38 3.38 0 01-1.058-.168 2.365 2.365 0 01-.842-.49l.281-.64c.492.395 1.026.592 1.603.592.369 0 .658-.098.866-.296.209-.203.313-.468.313-.794 0-.337-.099-.612-.297-.826-.197-.213-.473-.32-.825-.32-.498 0-.896.205-1.195.617h-.577v-3.4h3.367v.698h-2.558v1.788c.3-.262.679-.393 1.139-.393.358 0 .668.075.93.224.262.15.465.361.609.634.145.267.217.58.217.938 0 .363-.08.684-.241.962-.16.273-.387.486-.681.641-.294.156-.644.233-1.051.233z" fill="#080957"/><path d="M22.713 121.152l2.647 7.153 7.152 2.646-7.152 2.647-2.647 7.153-2.646-7.153-7.153-2.647 7.153-2.646 2.646-7.153zM175.27 14.254l1.023 2.763 2.763 1.023-2.763 1.023-1.023 2.763-1.022-2.764-2.764-1.022 2.764-1.023 1.022-2.763zm13.805 56.566l1.023 2.764 2.763 1.022-2.763 1.023-1.023 2.763-1.022-2.763-2.764-1.023 2.764-1.022 1.022-2.764zm-39.64 97.547l1.624 4.389 4.389 1.624-4.389 1.624-1.624 4.389-1.624-4.389-4.389-1.624 4.389-1.624 1.624-4.389z" fill="#FF6D02"/><path d="M143.499 99.653v-31.63c0-9.324 0-13.986-1.815-17.547a16.643 16.643 0 00-7.275-7.275c-3.561-1.814-8.222-1.814-17.546-1.814H81.349c-9.324 0-13.985 0-17.547 1.814a16.647 16.647 0 00-7.275 7.275c-1.814 3.561-1.814 8.223-1.814 17.546v57.711c0 9.324 0 13.986 1.814 17.547a16.65 16.65 0 007.276 7.275c3.56 1.814 8.222 1.814 17.546 1.814h17.757m11.098-61.04H76.909m11.099 22.196H76.909m44.393-44.393H76.909m36.07 66.59l11.098 11.098 24.971-24.971" stroke="#080957" stroke-width=".891" stroke-linecap="round" stroke-linejoin="round"/><path d="M8.056 64.728s50.184.054 48.649.424c-1.536.37-5.229 2.1-6.17 4.543" stroke="#080957" stroke-width=".766" stroke-linecap="round"/><path d="M8.054 64.726l48.649.424c-1.656-.525-5.191-2.19-6.09-4.65" stroke="#080957" stroke-width=".766" stroke-linecap="round"/><path stroke="#080957" stroke-width=".445" d="M126.43 81.517l2.977-2.348 6.135 7.78-2.978 2.348z"/><path d="M131.641 89.33l4.298-3.389 13.202 16.744a2.45 2.45 0 01-.407 3.441l-.45.355a2.451 2.451 0 01-3.441-.407L131.641 89.33z" fill="#fff" stroke="#080957" stroke-width=".445"/><g filter="url(#filter0_b_669_197481)" transform="rotate(-83.255 117.368 67.551)"><circle cx="117.368" cy="67.551" r="18.713" fill="#fff" fill-opacity=".7"/><circle cx="117.368" cy="67.551" r="18.491" stroke="#080957" stroke-width=".445"/></g><circle cx="117.366" cy="67.55" r="14.254" transform="rotate(-83.255 117.366 67.55)" stroke="#080957" stroke-width=".445"/><path stroke="#080957" stroke-width=".445" stroke-linecap="round" d="M123.125 74.815l-11.168-14.164m11.277 10.265l-6.842-8.677"/><path d="M171.266 118.297v20.415m7.218-17.425l-14.436 14.435m17.425-7.218h-20.414m17.425 7.218l-14.436-14.435" stroke="#080957" stroke-width=".891" stroke-linecap="round" stroke-linejoin="round"/><circle cx="130.951" cy="132.287" r="23.552" fill="#fff" stroke="#080957"/><path d="M144 125s-5.283 1.724-9.094 5.948c-3.812 4.224-6.031 9.052-6.031 9.052s-1.851-2.759-3.064-4.052c-1.213-1.293-3.811-2.766-3.811-2.766" stroke="#FF6D02" stroke-width="4" stroke-linecap="round" stroke-linejoin="round"/><defs><filter id="filter0_b_669_197481" x="96.871" y="47.054" width="40.995" height="40.993" filterUnits="userSpaceOnUse" color-interpolation-filters="sRGB"><feFlood flood-opacity="0" result="BackgroundImageFix"/><feGaussianBlur in="BackgroundImageFix" stdDeviation=".891"/><feComposite in2="SourceAlpha" operator="in" result="effect1_backgroundBlur_669_197481"/><feBlend in="SourceGraphic" in2="effect1_backgroundBlur_669_197481" result="shape"/></filter></defs></svg>