<svg width="204" height="179" fill="none" xmlns="http://www.w3.org/2000/svg"><rect x="34.584" y="98.721" width="126.437" height="27.903" rx="2.18" fill="#fff" stroke="#293A80" stroke-width=".872"/><path stroke="#293A80" stroke-width="2.147" stroke-linecap="round" d="M49.121 113.809h7.787m6.978 0h7.788m6.97 0h7.788m6.978 0h7.787"/><path d="M39.38 70.383l2.119 6.046 5.728 2.238-5.728 2.237-2.12 6.046-2.12-6.046-5.728-2.237 5.728-2.238 2.12-6.046zm126.007 7.847l1.53 4.138 4.137 1.53-4.137 1.531-1.53 4.137-1.531-4.137-4.137-1.53 4.137-1.531 1.531-4.137zM31.973 135.781l1.53 4.137 4.137 1.531-4.137 1.531-1.53 4.137-1.531-4.137-4.137-1.531 4.137-1.531 1.53-4.137zm67.582 14.824l1.178 3.183 3.182 1.177-3.182 1.178-1.178 3.182-1.177-3.182-3.183-1.178 3.183-1.177 1.177-3.183zm73.242-11.335l1.178 3.182 3.182 1.177-3.182 1.178-1.178 3.182-1.177-3.182-3.182-1.178 3.182-1.177 1.177-3.182z" fill="#FF6D02"/><path d="M148.747 47.322l.064-.104a16.19 16.19 0 002.487-8.655 4.653 4.653 0 019.305 0c0 1.183-.08 2.348-.236 3.49m-2.463 7.96a25.415 25.415 0 001.735-4.471m4.465 1.317a30.273 30.273 0 001.152-8.296 9.305 9.305 0 00-13.958-8.06m-5.816 13.136a11.574 11.574 0 001.164-5.076 9.27 9.27 0 011.244-4.653m8.061 4.653c0 4.091-1.174 7.908-3.202 11.133M59.594 164.287a11.695 11.695 0 01-2.123-6.735 5.874 5.874 0 1111.746 0" stroke="#080957" stroke-width="1.074" stroke-linecap="round" stroke-linejoin="round"/><path d="M59.594 164.287a11.695 11.695 0 01-2.123-6.735 5.874 5.874 0 1111.746 0" stroke="#080957" stroke-width="1.074" stroke-linecap="round" stroke-linejoin="round"/><path d="M69.537 163.411c-.106.006-.21.016-.316.016a5.875 5.875 0 01-5.873-5.876" stroke="#080957" stroke-width="1.074" stroke-linecap="round" stroke-linejoin="round"/><path d="M69.537 163.411c-.106.006-.21.016-.316.016a5.875 5.875 0 01-5.873-5.876" stroke="#080957" stroke-width="1.074" stroke-linecap="round" stroke-linejoin="round"/><path d="M64.569 165.037a8.808 8.808 0 01-4.158-7.484 2.938 2.938 0 115.875 0 2.938 2.938 0 005.874 0c0-4.869-3.945-8.815-8.81-8.815-4.866 0-8.81 3.946-8.81 8.815 0 1.085.12 2.141.344 3.16" stroke="#080957" stroke-width="1.074" stroke-linecap="round" stroke-linejoin="round"/><path d="M64.569 165.037a8.808 8.808 0 01-4.158-7.484 2.938 2.938 0 115.875 0 2.938 2.938 0 005.874 0c0-4.869-3.945-8.815-8.81-8.815-4.866 0-8.81 3.946-8.81 8.815 0 1.085.12 2.141.344 3.16" stroke="#080957" stroke-width="1.074" stroke-linecap="round" stroke-linejoin="round"/><path d="M71.547 149.513a10.896 10.896 0 00-8.2-3.716c-3.27 0-6.198 1.441-8.2 3.716" stroke="#080957" stroke-width="1.074" stroke-linecap="round" stroke-linejoin="round"/><path d="M71.547 149.513a10.896 10.896 0 00-8.2-3.716c-3.27 0-6.198 1.441-8.2 3.716" stroke="#080957" stroke-width="1.074" stroke-linecap="round" stroke-linejoin="round"/><path d="M149.062 133.041c1.1-.592 1.65-.888 1.789-1.244a1.039 1.039 0 00-.092-.938c-.205-.322-.802-.506-1.996-.874l-23.357-7.194c-.975-.301-1.463-.451-1.792-.33a1.037 1.037 0 00-.618.618c-.121.329.029.817.33 1.792l7.195 23.357c.367 1.194.551 1.791.874 1.996.279.178.628.213.937.092.356-.139.652-.689 1.244-1.789l5.184-9.626a2.25 2.25 0 01.188-.317c.05-.063.108-.121.171-.171.072-.056.154-.1.317-.188l9.626-5.184z" fill="#080957"/><path d="M124.48 112.503v-3.12m-8.195 6.367l-2.207-2.207m2.207 18.723l-2.207 2.206m18.723-18.722l2.206-2.207m-21.969 10.402h-3.12m28.842 14.956l-5.184 9.626c-.592 1.1-.888 1.65-1.244 1.789a1.04 1.04 0 01-.937-.092c-.323-.205-.507-.802-.874-1.996l-7.195-23.357c-.301-.975-.451-1.463-.33-1.792.105-.287.331-.513.618-.618.329-.121.817.029 1.792.33l23.357 7.194c1.194.368 1.791.552 1.996.874.179.28.213.629.092.938-.139.356-.689.652-1.789 1.244l-9.626 5.184c-.163.088-.245.132-.317.188-.063.05-.121.108-.171.171a2.25 2.25 0 00-.188.317z" stroke="#080957" stroke-width="1.074" stroke-linecap="round" stroke-linejoin="round"/><path d="M98.779 69.117c-7.233 0-13.665 3.492-17.76 8.912-.882 1.166-1.322 1.75-1.308 2.538.011.609.394 1.377.873 1.753.62.487 1.48.487 3.198.487h29.993c1.719 0 2.578 0 3.198-.487.48-.376.862-1.144.873-1.753.015-.788-.426-1.372-1.307-2.538-4.095-5.42-10.528-8.912-17.76-8.912zm0-6.844c5.67 0 10.267-4.597 10.267-10.268 0-5.67-4.597-10.267-10.267-10.267-5.67 0-10.267 4.597-10.267 10.267 0 5.67 4.596 10.267 10.267 10.267z" fill="#fff"/><path d="M98.779 69.117c-7.233 0-13.665 3.492-17.76 8.912-.882 1.166-1.322 1.75-1.308 2.538.011.609.394 1.377.873 1.753.62.487 1.48.487 3.198.487h29.993c1.719 0 2.578 0 3.198-.487.48-.376.862-1.144.873-1.753.015-.788-.426-1.372-1.307-2.538-4.095-5.42-10.528-8.912-17.76-8.912zm0-6.844c5.67 0 10.267-4.597 10.267-10.268 0-5.67-4.597-10.267-10.267-10.267-5.67 0-10.267 4.597-10.267 10.267 0 5.67 4.596 10.267 10.267 10.267z" stroke="#080957" stroke-width="1.074" stroke-linecap="round" stroke-linejoin="round"/></svg>