<svg width="177" height="182" fill="none" xmlns="http://www.w3.org/2000/svg"><g style="mix-blend-mode:darken" opacity=".7"><path d="M155.589 178.042a6.857 6.857 0 1011.939-6.749l-11.939 6.749zm-40.266-71.231l40.266 71.231 11.939-6.749-40.266-71.231-11.939 6.749z" fill="#F3F5FC"/><path d="M147.966 25.459l26.091 47.865c4.871 8.937 1.575 20.13-7.361 25.001l-43.528 23.726a7.286 7.286 0 01-9.884-2.91L76.527 51.708a7.286 7.286 0 012.91-9.884l43.528-23.726c8.937-4.871 20.13-1.575 25.001 7.361z" fill="#F3F5FC" stroke="#F3F5FC" stroke-width=".857"/><path d="M47.492 60.194c-9.055 5.145-12.224 16.657-7.078 25.711l26.935 47.396c5.145 9.054 16.657 12.223 25.711 7.077l11.246-6.391a7.714 7.714 0 002.896-10.518L69.256 56.698a7.714 7.714 0 00-10.519-2.895l-11.245 6.39z" fill="#F3F5FC"/><path d="M8.588 148.293l64.284 18.367" stroke="#F3F5FC" stroke-width="13.721" stroke-linecap="round"/></g></svg>