<svg width="191" height="130" fill="none" xmlns="http://www.w3.org/2000/svg"><rect x="19.481" y="46.482" width="140.037" height="31.037" rx="2.409" stroke="#080957" stroke-width=".963"/><path d="M118.618 62.155l.143.908.577-.715 8.595-10.65-4.926 12.768-.331.858.858-.331 12.769-4.926-10.651 8.595-.715.577.908.143 13.521 2.118-13.521 2.118-.908.143.715.577 10.651 8.595-12.769-4.926-.858-.331.331.858 4.926 12.769-8.595-10.65-.577-.717-.143.91-2.118 13.52-2.118-13.52-.143-.91-.577.716-8.595 10.65 4.926-12.768.331-.858-.858.331-12.769 4.926 10.651-8.595.715-.577-.908-.143L93.634 71.5l13.521-2.118.908-.143-.715-.577-10.65-8.595 12.768 4.926.858.331-.331-.858-4.926-12.769 8.595 10.65.577.716.143-.908 2.118-13.521 2.118 13.52z" fill="#fff" stroke="#FF6D02" stroke-width=".815"/><path d="M121.1 71.823c-1.05-.308-1.576-.463-1.933-.33a1.144 1.144 0 00-.673.674c-.134.357.021.882.33 1.933l9.638 32.771c.287.975.431 1.463.72 1.69.253.198.577.28.894.228.362-.06.722-.42 1.441-1.139l6.983-6.983 10.162 10.162c.454.453.681.68.942.765.231.075.478.075.709 0 .261-.085.488-.312.942-.765l6.574-6.574c.454-.454.68-.681.765-.943.075-.23.075-.478 0-.708-.085-.261-.311-.488-.765-.942L147.667 91.5l6.983-6.983c.719-.72 1.079-1.079 1.139-1.441a1.148 1.148 0 00-.228-.894c-.226-.29-.714-.433-1.69-.72L121.1 71.823z" fill="#080957"/><path d="M24.5 15l2.295 6.57L32.999 24l-6.204 2.43L24.499 33l-2.296-6.57L16 24l6.204-2.43L24.5 15zm139.999 9l1.756 4.744 4.744 1.756-4.744 1.756L164.499 37l-1.755-4.744-4.745-1.756 4.745-1.756L164.499 24zM16.5 88l1.756 4.744L23 94.5l-4.744 1.756L16.5 101l-1.756-4.744L10 94.5l4.744-1.756L16.5 88zM91 104l1.35 3.65L96 109l-3.65 1.35L91 114l-1.35-3.65L86 109l3.65-1.35L91 104zm81-12l1.35 3.65L177 97l-3.65 1.35L172 102l-1.35-3.65L167 97l3.65-1.35L172 92z" fill="#FF6D02"/><path stroke="#080957" stroke-width="2.373" stroke-linecap="round" d="M29.186 55.814h63.628m-63.628 7h40.628"/></svg>