<svg width="306" height="267" fill="none" xmlns="http://www.w3.org/2000/svg"><path d="M90.888 250.773l1.254 3.39 3.39 1.254-3.39 1.255-1.254 3.389-1.254-3.389-3.39-1.255 3.39-1.254 1.254-3.39z" fill="#080957"/><path d="M240.503 169.754a28.686 28.686 0 017.5 18.75 28.69 28.69 0 01-7.5 18.75m0-37.5a28.686 28.686 0 00-7.5 18.75 28.69 28.69 0 007.5 18.75m0-37.5c-10.355 0-18.75 8.395-18.75 18.75s8.395 18.75 18.75 18.75m0-37.5c10.355 0 18.75 8.395 18.75 18.75s-8.395 18.75-18.75 18.75m-17.813-24.375h35.625m-35.625 11.25h35.625" stroke="#080957" stroke-width="1.327" stroke-linecap="round" stroke-linejoin="round"/><rect x="70.663" y="57.663" width="161.673" height="160.673" rx="7.298" fill="#fff" stroke="#080957" stroke-width="1.327"/><path d="M70.663 64.961a7.298 7.298 0 017.298-7.298h147.078a7.298 7.298 0 017.298 7.298v23.376H70.663V64.96z" fill="#080957" stroke="#080957" stroke-width="1.327"/><circle cx="89.5" cy="73.5" r="4.837" fill="#fff" stroke="#080957" stroke-width="1.327"/><circle cx="105.5" cy="73.5" r="4.837" fill="#fff" stroke="#080957" stroke-width="1.327"/><circle cx="120.5" cy="73.5" r="4.837" fill="#fff" stroke="#080957" stroke-width="1.327"/><path d="M262.051 43.785l1.254 3.39 3.39 1.254-3.39 1.254-1.254 3.39-1.254-3.39-3.39-1.254 3.39-1.254 1.254-3.39zM89.562 19.902l1.254 3.39 3.39 1.254-3.39 1.255-1.254 3.39-1.254-3.39-3.39-1.255 3.39-1.254 1.254-3.39zM32.507 78.285l1.255 3.39 3.39 1.254-3.39 1.254-1.255 3.39-1.254-3.39-3.39-1.254 3.39-1.254 1.254-3.39zm27.864 172.488l1.255 3.39 3.39 1.254-3.39 1.255-1.255 3.389-1.254-3.389-3.39-1.255 3.39-1.254 1.255-3.39zm30.517 0l1.254 3.39 3.39 1.254-3.39 1.255-1.254 3.389-1.254-3.389-3.39-1.255 3.39-1.254 1.254-3.39z" fill="#080957"/><path d="M187.747 49.095c13.711-3.76 43.52-7.696 53.074 6.634 11.941 17.912 10.614 41.796-3.317 49.757" stroke="#080957" stroke-width="1.327" stroke-linecap="round"/><path d="M197.036 188.41l1.254 3.39 3.389 1.254-3.389 1.254-1.254 3.39-1.255-3.39-3.389-1.254 3.389-1.254 1.255-3.39z" fill="#080957"/><path d="M61.7 139.316c-15.038 13.269-41.663 44.184-27.864 61.698 13.8 17.515 32.729 19.682 40.469 18.576" stroke="#080957" stroke-width="1.327" stroke-linecap="round"/><path d="M73 203l3.296 3.698L81 205.144l1.006 4.85 4.85 1.006-1.554 4.704L89 219l-3.698 3.296L86.856 227l-4.85 1.006-1.006 4.85-4.704-1.554L73 235l-3.296-3.698L65 232.856l-1.006-4.85-4.85-1.006 1.554-4.704L57 219l3.698-3.296L59.144 211l4.85-1.006 1.006-4.85 4.704 1.554L73 203z" fill="#080957"/><path d="M150 161.333V146.75m0-14.583h.042M141.25 183l6.083 8.111c.905 1.206 1.357 1.809 1.912 2.025a2.082 2.082 0 001.51 0c.555-.216 1.007-.819 1.912-2.025L158.75 183c1.221-1.629 1.832-2.443 2.577-3.065a8.328 8.328 0 013.425-1.712c.944-.223 1.962-.223 3.998-.223 5.824 0 8.736 0 11.034-.952a12.498 12.498 0 006.764-6.764c.952-2.298.952-5.21.952-11.034V135.5c0-7.001 0-10.501-1.362-13.175a12.508 12.508 0 00-5.463-5.463c-2.674-1.362-6.174-1.362-13.175-1.362h-35c-7.001 0-10.501 0-13.175 1.362a12.508 12.508 0 00-5.463 5.463c-1.362 2.674-1.362 6.174-1.362 13.175v23.75c0 5.824 0 8.736.952 11.034a12.498 12.498 0 006.764 6.764c2.298.952 5.21.952 11.034.952 2.036 0 3.054 0 3.998.223a8.328 8.328 0 013.425 1.712c.745.622 1.356 1.436 2.577 3.065z" stroke="#FF6D02" stroke-width="4" stroke-linecap="round" stroke-linejoin="round"/></svg>