<svg width="308" height="289" fill="none" xmlns="http://www.w3.org/2000/svg"><path d="M91.389 250.773l1.254 3.39 3.39 1.254-3.39 1.255-1.254 3.389-1.255-3.389-3.39-1.255 3.39-1.254 1.255-3.39z" fill="#080957"/><path d="M241.002 169.75a28.683 28.683 0 017.5 18.75 28.683 28.683 0 01-7.5 18.75m0-37.5a28.693 28.693 0 00-7.5 18.75 28.693 28.693 0 007.5 18.75m0-37.5c-10.355 0-18.75 8.395-18.75 18.75s8.395 18.75 18.75 18.75m0-37.5c10.356 0 18.75 8.395 18.75 18.75s-8.394 18.75-18.75 18.75m-17.812-24.375h35.625m-35.625 11.25h35.625" stroke="#080957" stroke-width="1.327" stroke-linecap="round" stroke-linejoin="round"/><rect x="71.163" y="57.663" width="161.673" height="160.673" rx="7.298" fill="#fff" stroke="#080957" stroke-width="1.327"/><path d="M71.163 64.961a7.298 7.298 0 017.298-7.298h147.078a7.298 7.298 0 017.298 7.298v23.376H71.163V64.96z" fill="#080957" stroke="#080957" stroke-width="1.327"/><circle cx="90" cy="73.5" r="4.837" fill="#fff" stroke="#080957" stroke-width="1.327"/><circle cx="106" cy="73.5" r="4.837" fill="#fff" stroke="#080957" stroke-width="1.327"/><circle cx="121" cy="73.5" r="4.837" fill="#fff" stroke="#080957" stroke-width="1.327"/><path d="M262.551 43.785l1.254 3.39 3.39 1.254-3.39 1.254-1.254 3.39-1.254-3.39-3.39-1.254 3.39-1.254 1.254-3.39zM90.062 19.902l1.254 3.39 3.39 1.254-3.39 1.255-1.254 3.39-1.255-3.39-3.39-1.255 3.39-1.254 1.255-3.39zM33.008 78.285l1.254 3.39 3.39 1.254-3.39 1.254-1.255 3.39-1.254-3.39-3.39-1.254 3.39-1.254 1.255-3.39zm27.863 172.488l1.255 3.39 3.39 1.254-3.39 1.255-1.255 3.389-1.254-3.389-3.39-1.255 3.39-1.254 1.254-3.39zm30.518 0l1.254 3.39 3.39 1.254-3.39 1.255-1.254 3.389-1.255-3.389-3.39-1.255 3.39-1.254 1.255-3.39z" fill="#080957"/><path d="M188.247 49.091c13.711-3.76 43.521-7.696 53.074 6.634 11.941 17.913 10.615 41.796-3.317 49.757" stroke="#080957" stroke-width="1.327" stroke-linecap="round"/><mask id="a" fill="#fff"><path fill-rule="evenodd" clip-rule="evenodd" d="M163.7 30.516a5.307 5.307 0 00-5.307 5.307v27.864a5.307 5.307 0 005.307 5.307h14.746l2.754 3.817c.53.733 1.622.733 2.152 0l2.754-3.817h13.419a5.307 5.307 0 005.307-5.307V35.823a5.307 5.307 0 00-5.307-5.307H163.7z"/></mask><path fill-rule="evenodd" clip-rule="evenodd" d="M163.7 30.516a5.307 5.307 0 00-5.307 5.307v27.864a5.307 5.307 0 005.307 5.307h14.746l2.754 3.817c.53.733 1.622.733 2.152 0l2.754-3.817h13.419a5.307 5.307 0 005.307-5.307V35.823a5.307 5.307 0 00-5.307-5.307H163.7z" fill="#fff"/><path d="M178.446 68.994l1.076-.776-.398-.55h-.678v1.326zm2.754 3.817l-1.076.776 1.076-.776zm2.152 0l1.076.776-1.076-.776zm2.754-3.817v-1.327h-.679l-.397.55 1.076.777zM159.72 35.823a3.98 3.98 0 013.98-3.98v-2.654a6.634 6.634 0 00-6.634 6.634h2.654zm0 27.864V35.823h-2.654v27.864h2.654zm3.98 3.98a3.98 3.98 0 01-3.98-3.98h-2.654a6.634 6.634 0 006.634 6.634v-2.654zm14.746 0H163.7v2.654h14.746v-2.654zm3.83 4.367l-2.754-3.817-2.152 1.553 2.754 3.817 2.152-1.553zm0 0l-2.152 1.553a2.654 2.654 0 004.304 0l-2.152-1.553zm2.754-3.817l-2.754 3.817 2.152 1.553 2.754-3.817-2.152-1.552zm14.495-.55h-13.419v2.654h13.419v-2.654zm3.98-3.98a3.98 3.98 0 01-3.98 3.98v2.654a6.634 6.634 0 006.634-6.634h-2.654zm0-27.864v27.864h2.654V35.823h-2.654zm-3.98-3.98a3.98 3.98 0 013.98 3.98h2.654a6.634 6.634 0 00-6.634-6.634v2.654zm-35.825 0h35.825v-2.654H163.7v2.654z" fill="#080957" mask="url(#a)"/><path fill-rule="evenodd" clip-rule="evenodd" d="M182.492 43.136c-1.999-2.338-5.333-2.966-7.838-.826s-2.858 5.719-.891 8.25c1.636 2.105 6.586 6.544 8.208 7.98.182.162.272.242.378.273a.504.504 0 00.286 0c.106-.031.197-.111.378-.272 1.623-1.437 6.573-5.876 8.208-7.98 1.967-2.532 1.658-6.133-.89-8.251-2.548-2.118-5.839-1.512-7.839.826z" fill="#FF6D02" stroke="#FF6D02" stroke-width="2.654" stroke-linecap="round" stroke-linejoin="round"/><path d="M197.536 188.41l1.254 3.39 3.39 1.254-3.39 1.254-1.254 3.39-1.254-3.39-3.39-1.254 3.39-1.254 1.254-3.39z" fill="#080957"/><mask id="b" fill="#fff"><path fill-rule="evenodd" clip-rule="evenodd" d="M222.082 95.531a5.307 5.307 0 00-5.307 5.308v27.863a5.308 5.308 0 005.307 5.308h14.746l2.754 3.816a1.327 1.327 0 002.152 0l2.754-3.816h13.419a5.308 5.308 0 005.307-5.308v-27.863a5.307 5.307 0 00-5.307-5.308h-35.825z"/></mask><path fill-rule="evenodd" clip-rule="evenodd" d="M222.082 95.531a5.307 5.307 0 00-5.307 5.308v27.863a5.308 5.308 0 005.307 5.308h14.746l2.754 3.816a1.327 1.327 0 002.152 0l2.754-3.816h13.419a5.308 5.308 0 005.307-5.308v-27.863a5.307 5.307 0 00-5.307-5.308h-35.825z" fill="#fff"/><path d="M236.828 134.01l1.075-.777-.397-.55h-.678v1.327zm2.754 3.816l-1.076.777 1.076-.777zm2.152 0l1.076.777-1.076-.777zm2.754-3.816v-1.327h-.679l-.397.55 1.076.777zm-26.387-33.171a3.981 3.981 0 013.981-3.98v-2.655a6.634 6.634 0 00-6.634 6.635h2.653zm0 27.863v-27.863h-2.653v27.863h2.653zm3.981 3.981a3.981 3.981 0 01-3.981-3.981h-2.653a6.634 6.634 0 006.634 6.634v-2.653zm14.746 0h-14.746v2.653h14.746v-2.653zm3.83 4.367l-2.755-3.817-2.151 1.553 2.754 3.817 2.152-1.553zm0 0l-2.152 1.553a2.655 2.655 0 004.304 0l-2.152-1.553zm2.754-3.817l-2.754 3.817 2.152 1.553 2.754-3.817-2.152-1.553zm14.495-.55h-13.419v2.653h13.419v-2.653zm3.98-3.981a3.98 3.98 0 01-3.98 3.981v2.653a6.634 6.634 0 006.634-6.634h-2.654zm0-27.863v27.863h2.654v-27.863h-2.654zm-3.98-3.98a3.98 3.98 0 013.98 3.98h2.654a6.634 6.634 0 00-6.634-6.635v2.654zm-35.825 0h35.825v-2.655h-35.825v2.654z" fill="#080957" mask="url(#b)"/><path fill-rule="evenodd" clip-rule="evenodd" d="M240.494 108.136c-1.999-2.338-5.333-2.966-7.838-.826s-2.858 5.719-.891 8.25c1.636 2.105 6.586 6.544 8.208 7.981.182.161.273.241.378.273a.515.515 0 00.286 0c.106-.032.197-.112.378-.273 1.623-1.437 6.573-5.876 8.208-7.981 1.968-2.531 1.658-6.132-.89-8.25-2.548-2.118-5.839-1.512-7.839.826z" fill="#FF6D02" stroke="#FF6D02" stroke-width="2.654" stroke-linecap="round" stroke-linejoin="round"/><path fill-rule="evenodd" clip-rule="evenodd" d="M151.981 134.909c-5.415-6.33-14.445-8.033-21.229-2.236-6.785 5.797-7.74 15.489-2.412 22.345 4.43 5.7 17.836 17.722 22.23 21.613.491.436.737.653 1.024.739.25.075.524.075.774 0 .287-.086.533-.303 1.024-.739 4.394-3.891 17.8-15.913 22.23-21.613 5.328-6.856 4.489-16.609-2.412-22.345-6.901-5.736-15.814-4.094-21.229 2.236z" fill="#080957" stroke="#080957" stroke-width="2.654" stroke-linecap="round" stroke-linejoin="round"/><path d="M62.2 139.316c-15.038 13.269-41.663 44.184-27.864 61.698 13.799 17.515 32.728 19.682 40.468 18.576" stroke="#080957" stroke-width="1.327" stroke-linecap="round"/><mask id="c" fill="#fff"><path fill-rule="evenodd" clip-rule="evenodd" d="M38.978 120.742a5.307 5.307 0 00-5.308 5.308v27.863a5.308 5.308 0 005.308 5.308h14.745l2.755 3.816c.53.734 1.622.734 2.151 0l2.755-3.816h13.418a5.308 5.308 0 005.308-5.308V126.05a5.307 5.307 0 00-5.308-5.308H38.978z"/></mask><path fill-rule="evenodd" clip-rule="evenodd" d="M38.978 120.742a5.307 5.307 0 00-5.308 5.308v27.863a5.308 5.308 0 005.308 5.308h14.745l2.755 3.816c.53.734 1.622.734 2.151 0l2.755-3.816h13.418a5.308 5.308 0 005.308-5.308V126.05a5.307 5.307 0 00-5.308-5.308H38.978z" fill="#fff"/><path d="M53.723 159.221l1.076-.777-.397-.55h-.679v1.327zm2.755 3.816l-1.076.777 1.076-.777zm2.151 0l1.076.777-1.076-.777zm2.755-3.816v-1.327h-.679l-.397.55 1.076.777zM34.997 126.05a3.98 3.98 0 013.98-3.981v-2.654a6.635 6.635 0 00-6.633 6.635h2.653zm0 27.863V126.05h-2.653v27.863h2.653zm3.98 3.981a3.98 3.98 0 01-3.98-3.981h-2.653a6.634 6.634 0 006.634 6.634v-2.653zm14.746 0H38.978v2.653h14.745v-2.653zm3.83 4.367l-2.754-3.817-2.152 1.553 2.755 3.817 2.151-1.553zm0 0l-2.151 1.553a2.654 2.654 0 004.303 0l-2.151-1.553zm2.755-3.817l-2.755 3.817 2.152 1.553 2.755-3.817-2.152-1.553zm14.494-.55H61.384v2.653h13.418v-2.653zm3.981-3.981a3.98 3.98 0 01-3.98 3.981v2.653a6.634 6.634 0 006.634-6.634h-2.654zm0-27.863v27.863h2.654V126.05h-2.654zm-3.98-3.981a3.98 3.98 0 013.98 3.981h2.654a6.635 6.635 0 00-6.635-6.635v2.654zm-35.825 0h35.824v-2.654H38.978v2.654z" fill="#080957" mask="url(#c)"/><path fill-rule="evenodd" clip-rule="evenodd" d="M57.495 134.136c-2-2.338-5.334-2.966-7.839-.826-2.505 2.14-2.858 5.719-.89 8.25 1.635 2.105 6.585 6.544 8.208 7.981.181.161.272.241.378.273a.515.515 0 00.286 0c.105-.032.196-.112.378-.273 1.622-1.437 6.572-5.876 8.208-7.981 1.967-2.531 1.657-6.132-.89-8.25-2.549-2.118-5.84-1.512-7.84.826z" fill="#FF6D02" stroke="#FF6D02" stroke-width="2.654" stroke-linecap="round" stroke-linejoin="round"/><path d="M73.5 203l3.296 3.698 4.704-1.554 1.006 4.85 4.85 1.006-1.554 4.704L89.5 219l-3.698 3.296L87.356 227l-4.85 1.006-1.006 4.85-4.704-1.554L73.5 235l-3.296-3.698-4.704 1.554-1.006-4.85-4.85-1.006 1.554-4.704L57.5 219l3.698-3.296L59.644 211l4.85-1.006 1.006-4.85 4.704 1.554L73.5 203z" fill="#080957"/><mask id="d" fill="#fff"><path fill-rule="evenodd" clip-rule="evenodd" d="M194.229 226.891c-.512 0-.979-.295-1.198-.758l-1.597-3.356c-.48-1.01-1.916-1.01-2.396 0l-1.596 3.356c-.22.463-.686.758-1.198.758h-57.042a2.653 2.653 0 00-2.654 2.653v25.21a2.654 2.654 0 002.654 2.654h122.069a2.653 2.653 0 002.653-2.654v-25.21a2.653 2.653 0 00-2.653-2.653h-57.042z"/></mask><path fill-rule="evenodd" clip-rule="evenodd" d="M194.229 226.891c-.512 0-.979-.295-1.198-.758l-1.597-3.356c-.48-1.01-1.916-1.01-2.396 0l-1.596 3.356c-.22.463-.686.758-1.198.758h-57.042a2.653 2.653 0 00-2.654 2.653v25.21a2.654 2.654 0 002.654 2.654h122.069a2.653 2.653 0 002.653-2.654v-25.21a2.653 2.653 0 00-2.653-2.653h-57.042z" fill="#fff"/><path d="M187.442 226.133l-1.198-.569 1.198.569zm5.589 0l1.198-.569-1.198.569zm-1.597-3.356l-1.198.569 1.198-.569zm-2.396 0l-1.198-.57 1.198.57zm1.198.569l1.596 3.357 2.397-1.139-1.596-3.357-2.397 1.139zm-1.596 3.357l1.596-3.357-2.396-1.139-1.596 3.357 2.396 1.139zm-59.438 1.514h57.042v-2.653h-57.042v2.653zm-1.327 1.327c0-.733.594-1.327 1.327-1.327v-2.653a3.98 3.98 0 00-3.981 3.98h2.654zm0 25.21v-25.21h-2.654v25.21h2.654zm1.327 1.327a1.327 1.327 0 01-1.327-1.327h-2.654a3.98 3.98 0 003.981 3.981v-2.654zm122.069 0H129.202v2.654h122.069v-2.654zm1.327-1.327c0 .733-.594 1.327-1.327 1.327v2.654a3.98 3.98 0 003.98-3.981h-2.653zm0-25.21v25.21h2.653v-25.21h-2.653zm-1.327-1.327c.733 0 1.327.594 1.327 1.327h2.653a3.98 3.98 0 00-3.98-3.98v2.653zm-57.042 0h57.042v-2.653h-57.042v2.653zm-7.985-2.653v2.653a2.653 2.653 0 002.396-1.514l-2.396-1.139zm5.588 1.139a2.654 2.654 0 002.397 1.514v-2.653l-2.397 1.139zm.801-4.496c-.96-2.019-3.833-2.019-4.793 0l2.396 1.139 2.397-1.139z" fill="#080957" mask="url(#d)"/><path d="M143.739 235.884c.397-1.223 2.127-1.223 2.524 0l.797 2.454c.178.547.688.917 1.262.917h2.581c1.286 0 1.82 1.645.78 2.401l-2.088 1.517a1.327 1.327 0 00-.482 1.483l.798 2.455c.397 1.222-1.002 2.239-2.042 1.483l-2.088-1.517a1.327 1.327 0 00-1.56 0l-2.088 1.517c-1.04.756-2.439-.261-2.042-1.483l.798-2.455a1.327 1.327 0 00-.482-1.483l-2.088-1.517c-1.04-.756-.506-2.401.779-2.401h2.582c.574 0 1.084-.37 1.261-.917l.798-2.454zm23 0c.397-1.223 2.127-1.223 2.524 0l.797 2.454c.178.547.688.917 1.262.917h2.581c1.286 0 1.82 1.645.78 2.401l-2.088 1.517a1.327 1.327 0 00-.482 1.483l.798 2.455c.397 1.222-1.002 2.239-2.042 1.483l-2.088-1.517a1.327 1.327 0 00-1.56 0l-2.088 1.517c-1.04.756-2.439-.261-2.042-1.483l.798-2.455a1.327 1.327 0 00-.482-1.483l-2.088-1.517c-1.04-.756-.506-2.401.779-2.401h2.582c.574 0 1.084-.37 1.261-.917l.798-2.454zm22 0c.397-1.223 2.127-1.223 2.524 0l.797 2.454c.178.547.688.917 1.262.917h2.581c1.286 0 1.82 1.645.78 2.401l-2.088 1.517a1.327 1.327 0 00-.482 1.483l.798 2.455c.397 1.222-1.002 2.239-2.042 1.483l-2.088-1.517a1.327 1.327 0 00-1.56 0l-2.088 1.517c-1.04.756-2.439-.261-2.042-1.483l.798-2.455a1.327 1.327 0 00-.482-1.483l-2.088-1.517c-1.04-.756-.506-2.401.779-2.401h2.582c.574 0 1.084-.37 1.261-.917l.798-2.454zm23 0c.397-1.223 2.127-1.223 2.524 0l.797 2.454c.178.547.688.917 1.262.917h2.581c1.286 0 1.82 1.645.78 2.401l-2.088 1.517a1.327 1.327 0 00-.482 1.483l.798 2.455c.397 1.222-1.002 2.239-2.042 1.483l-2.088-1.517a1.327 1.327 0 00-1.56 0l-2.088 1.517c-1.04.756-2.439-.261-2.042-1.483l.798-2.455a1.327 1.327 0 00-.482-1.483l-2.088-1.517c-1.04-.756-.506-2.401.779-2.401h2.582c.574 0 1.084-.37 1.261-.917l.798-2.454zm22 0c.397-1.223 2.127-1.223 2.524 0l.797 2.454c.178.547.688.917 1.262.917h2.581c1.286 0 1.82 1.645.78 2.401l-2.088 1.517a1.327 1.327 0 00-.482 1.483l.798 2.455c.397 1.222-1.002 2.239-2.042 1.483l-2.088-1.517a1.327 1.327 0 00-1.56 0l-2.088 1.517c-1.04.756-2.439-.261-2.042-1.483l.798-2.455a1.327 1.327 0 00-.482-1.483l-2.088-1.517c-1.04-.756-.506-2.401.779-2.401h2.582c.574 0 1.084-.37 1.261-.917l.798-2.454z" fill="#FF6D02"/></svg>