<svg width="208" height="143" fill="none" xmlns="http://www.w3.org/2000/svg"><g clip-path="url(#clip0_1104_83090)"><rect x="10.876" y="59.911" width="173.595" height="38.311" rx="2.993" stroke="#080957" stroke-width="1.197"/><path d="M134.627 79.528l.177 1.129.717-.89 10.77-13.345-6.172 16-.412 1.066 1.067-.411 16-6.173-13.346 10.77-.889.718 1.129.176 16.942 2.655-16.942 2.654-1.129.177.889.718 13.346 10.769-16-6.172-1.067-.412.412 1.067 6.172 16-10.77-13.346-.717-.889-.177 1.129-2.654 16.942-2.655-16.942-.176-1.129-.718.889-10.77 13.346 6.173-16 .411-1.067-1.066.412-16 6.172 13.345-10.77.89-.717-1.129-.177-16.943-2.654 16.943-2.655 1.129-.176-.89-.718-13.345-10.77 16 6.173 1.066.41-.411-1.065-6.173-16 10.77 13.346.718.889.176-1.13 2.655-16.942 2.654 16.943z" fill="#fff" stroke="#FF6D02" stroke-width="1.013"/><path d="M139.698 96.163c-.996-.293-1.494-.44-1.834-.313-.295.11-.528.344-.639.64-.126.339.02.837.314 1.833l9.145 31.097c.273.926.409 1.389.684 1.603.24.188.547.266.848.217.344-.057.685-.399 1.368-1.081l6.626-6.626 9.642 9.642c.431.431.646.646.894.727.219.071.454.071.672 0 .249-.081.464-.296.894-.727l6.238-6.238c.431-.43.646-.645.727-.894a1.087 1.087 0 000-.672c-.081-.248-.296-.463-.727-.894l-9.642-9.642 6.626-6.626c.682-.683 1.024-1.024 1.081-1.368a1.09 1.09 0 00-.217-.848c-.214-.275-.677-.411-1.603-.684l-31.097-9.145z" fill="#080957"/><path d="M17.459 21l2.91 8.302 7.864 3.072-7.864 3.071-2.91 8.302-2.91-8.302-7.865-3.072 7.864-3.071L17.458 21zm172.995 10.773l2.102 5.68 5.68 2.102-5.68 2.102-2.102 5.68-2.102-5.68-5.68-2.102 5.68-2.102 2.102-5.68zM7.282 110.789l2.102 5.68 5.68 2.102-5.68 2.102-2.102 5.68-2.102-5.68-5.68-2.102 5.68-2.102 2.102-5.68zm92.782 20.352l1.617 4.369 4.369 1.617-4.369 1.616-1.617 4.37-1.617-4.37-4.369-1.616 4.37-1.617 1.616-4.369zm100.57-15.563l1.617 4.369 4.37 1.617-4.37 1.617-1.617 4.369-1.616-4.369-4.37-1.617 4.37-1.617 1.616-4.369z" fill="#FF6D02"/><path stroke="#080957" stroke-width="2.373" stroke-linecap="round" d="M54.772 72.759h63.469m-63.473 6.82h40.34"/><path d="M24.5 74l8.165 5.715c.661.463.992.695 1.351.784a2 2 0 00.968 0c.36-.09.69-.32 1.351-.784L44.5 74M29.3 87h10.4c1.68 0 2.52 0 3.162-.327a3 3 0 001.311-1.311c.327-.642.327-1.482.327-3.162v-6.4c0-1.68 0-2.52-.327-3.162a3 3 0 00-1.311-1.311C42.22 71 41.38 71 39.7 71H29.3c-1.68 0-2.52 0-3.162.327a3 3 0 00-1.311 1.311c-.327.642-.327 1.482-.327 3.162v6.4c0 1.68 0 2.52.327 3.162a3 3 0 001.311 1.311C26.78 87 27.62 87 29.3 87z" stroke="#080957" stroke-width="2" stroke-linecap="round" stroke-linejoin="round"/></g><defs><clipPath id="clip0_1104_83090"><path fill="#fff" transform="translate(.5)" d="M0 0h207v143H0z"/></clipPath></defs></svg>