<svg width="306" height="267" fill="none" xmlns="http://www.w3.org/2000/svg"><path d="M90.888 250.773l1.254 3.39 3.39 1.254-3.39 1.255-1.254 3.389-1.254-3.389-3.39-1.255 3.39-1.254 1.254-3.39z" fill="#080957"/><path d="M240.503 169.75a28.688 28.688 0 017.5 18.75 28.688 28.688 0 01-7.5 18.75m0-37.5a28.688 28.688 0 00-7.5 18.75 28.688 28.688 0 007.5 18.75m0-37.5c-10.355 0-18.75 8.395-18.75 18.75s8.395 18.75 18.75 18.75m0-37.5c10.355 0 18.75 8.395 18.75 18.75s-8.395 18.75-18.75 18.75m-17.813-24.375h35.625m-35.625 11.25h35.625" stroke="#080957" stroke-width="1.327" stroke-linecap="round" stroke-linejoin="round"/><rect x="70.663" y="57.663" width="161.673" height="160.673" rx="7.298" fill="#fff" stroke="#080957" stroke-width="1.327"/><path d="M70.663 64.961a7.298 7.298 0 017.298-7.298h147.078a7.298 7.298 0 017.298 7.298v23.376H70.663V64.96z" fill="#080957" stroke="#080957" stroke-width="1.327"/><circle cx="89.5" cy="73.5" r="4.837" fill="#fff" stroke="#080957" stroke-width="1.327"/><circle cx="105.5" cy="73.5" r="4.837" fill="#fff" stroke="#080957" stroke-width="1.327"/><circle cx="120.5" cy="73.5" r="4.837" fill="#fff" stroke="#080957" stroke-width="1.327"/><path d="M262.051 43.785l1.254 3.39 3.39 1.254-3.39 1.254-1.254 3.39-1.254-3.39-3.39-1.254 3.39-1.254 1.254-3.39zM89.562 19.902l1.254 3.39 3.39 1.254-3.39 1.255-1.254 3.39-1.254-3.39-3.39-1.255 3.39-1.254 1.254-3.39zM32.507 78.285l1.255 3.39 3.39 1.254-3.39 1.254-1.255 3.39-1.254-3.39-3.39-1.254 3.39-1.254 1.254-3.39zm27.864 172.488l1.255 3.39 3.39 1.254-3.39 1.255-1.255 3.389-1.254-3.389-3.39-1.255 3.39-1.254 1.255-3.39zm30.517 0l1.254 3.39 3.39 1.254-3.39 1.255-1.254 3.389-1.254-3.389-3.39-1.255 3.39-1.254 1.254-3.39z" fill="#080957"/><path d="M187.747 49.095c13.711-3.76 43.52-7.696 53.074 6.634 11.941 17.912 10.614 41.796-3.317 49.757" stroke="#080957" stroke-width="1.327" stroke-linecap="round"/><path d="M197.036 188.41l1.254 3.39 3.389 1.254-3.389 1.254-1.254 3.39-1.255-3.39-3.389-1.254 3.389-1.254 1.255-3.39z" fill="#080957"/><path d="M61.7 139.316c-15.038 13.269-41.663 44.184-27.864 61.698 13.8 17.515 32.729 19.682 40.469 18.576" stroke="#080957" stroke-width="1.327" stroke-linecap="round"/><path d="M73 203l3.296 3.698L81 205.144l1.006 4.85 4.85 1.006-1.554 4.704L89 219l-3.698 3.296L86.856 227l-4.85 1.006-1.006 4.85-4.704-1.554L73 235l-3.296-3.698L65 232.856l-1.006-4.85-4.85-1.006 1.554-4.704L57 219l3.698-3.296L59.144 211l4.85-1.006 1.006-4.85 4.704 1.554L73 203z" fill="#080957"/><path d="M182.502 126.824s-14.27 4.679-24.564 16.142c-10.293 11.463-16.288 24.564-16.288 24.564s-5-7.486-8.276-10.995c-3.275-3.509-10.293-7.508-10.293-7.508" stroke="#FF6D02" stroke-width="10.886" stroke-linecap="round" stroke-linejoin="round"/></svg>