<svg width="160" height="44" fill="none" xmlns="http://www.w3.org/2000/svg"><g clip-path="url(#clip0_702_138401)"><path d="M54.658 17.833V3.028h10.647V5.57h-7.54v3.423h3.907c1.582 0 2.828.378 3.738 1.134.924.756 1.386 1.848 1.386 3.276 0 1.428-.462 2.527-1.386 3.297-.91.756-2.156 1.134-3.738 1.134h-7.014zm3.108-2.52h3.465c.84 0 1.456-.154 1.848-.462.392-.308.588-.79.588-1.449 0-.63-.196-1.099-.588-1.407-.392-.322-1.008-.483-1.848-.483h-3.465v3.801zm9.485 2.52l6.804-14.805h2.625l6.804 14.805h-3.276l-1.386-3.213h-6.91l-1.364 3.213H67.25zm8.085-11.34l-2.331 5.586h4.746l-2.373-5.586h-.042zm9.427 11.34V3.028h3.255v5.943h6.888V3.028h3.255v14.805h-3.255V11.68h-6.888v6.153h-3.255zm16.386 0V3.028h3.255V9.14h1.785l3.759-6.11h3.57l-4.347 6.72c1.022.517 1.855 1.434 2.499 2.75l2.583 5.334h-3.528l-1.932-4.2c-.308-.658-.679-1.12-1.113-1.386-.42-.28-.959-.42-1.617-.42h-1.659v6.006h-3.255zm14.602 0V3.028h6.762c1.652 0 2.926.42 3.822 1.26.896.826 1.344 1.981 1.344 3.465 0 1.484-.448 2.646-1.344 3.486-.896.84-2.17 1.26-3.822 1.26h-3.507v5.334h-3.255zm3.255-7.854h2.961c1.722 0 2.583-.742 2.583-2.226 0-1.456-.861-2.184-2.583-2.184h-2.961v4.41zm17.352 8.085c-1.456 0-2.737-.315-3.843-.945a6.805 6.805 0 01-2.562-2.667c-.602-1.148-.903-2.492-.903-4.032s.301-2.877.903-4.01c.616-1.149 1.47-2.038 2.562-2.668 1.092-.63 2.373-.945 3.843-.945 1.47 0 2.751.315 3.843.945a6.447 6.447 0 012.562 2.667c.616 1.134.924 2.464.924 3.99 0 1.54-.308 2.884-.924 4.032a6.584 6.584 0 01-2.562 2.688c-1.092.63-2.373.945-3.843.945zm0-2.772c1.232 0 2.191-.427 2.877-1.28.7-.869 1.05-2.066 1.05-3.592 0-1.54-.343-2.73-1.029-3.57-.686-.854-1.652-1.28-2.898-1.28-1.218 0-2.177.426-2.877 1.28-.686.84-1.029 2.03-1.029 3.57 0 1.526.343 2.723 1.029 3.591.7.854 1.659 1.281 2.877 1.281zm12.493 2.541V5.716h-4.893V3.028h13.041v2.688h-4.893v12.117h-3.255zm-94.193 22V25.028h10.647v2.541h-7.54v3.423h3.907c1.582 0 2.828.378 3.738 1.134.924.756 1.386 1.848 1.386 3.276 0 1.428-.462 2.527-1.386 3.297-.91.756-2.156 1.134-3.738 1.134h-7.014zm3.108-2.52h3.465c.84 0 1.456-.154 1.848-.462.392-.308.588-.79.588-1.449 0-.63-.196-1.099-.588-1.407-.392-.322-1.008-.483-1.848-.483h-3.465v3.801zm9.485 2.52l6.804-14.805h2.625l6.804 14.805h-3.276l-1.386-3.213h-6.91l-1.364 3.213H67.25zm8.085-11.34l-2.331 5.586h4.746l-2.373-5.586h-.042zM89.55 40.064c-1.232 0-2.324-.147-3.276-.44a8.6 8.6 0 01-2.499-1.282l.966-2.415a6.606 6.606 0 001.995 1.05c.77.238 1.617.357 2.541.357 1.05 0 1.827-.16 2.331-.483.504-.322.756-.826.756-1.512 0-.588-.196-1.022-.588-1.302-.392-.294-1.008-.44-1.848-.44h-3.57v-2.542h3.213c1.596 0 2.394-.574 2.394-1.722 0-.546-.21-.987-.63-1.323-.42-.336-1.099-.504-2.037-.504a7.45 7.45 0 00-2.289.357c-.742.238-1.4.581-1.974 1.03l-.945-2.416c.658-.518 1.477-.924 2.457-1.218a10.45 10.45 0 013.15-.462c1.834 0 3.206.385 4.116 1.155.91.756 1.365 1.73 1.365 2.92 0 .783-.203 1.462-.609 2.036-.392.56-.938.98-1.638 1.26.84.238 1.484.658 1.932 1.26.462.602.693 1.344.693 2.226 0 1.316-.49 2.38-1.47 3.192-.98.812-2.492 1.218-4.536 1.218zm6.554-.23l6.804-14.806h2.625l6.804 14.805h-3.276l-1.386-3.213h-6.909l-1.365 3.213h-3.297zm8.085-11.34l-2.331 5.585h4.746l-2.373-5.586h-.042z" fill="#080957"/><rect width="47.056" height="44" rx="7.333" fill="#F3F5FC"/><path d="M34.87 32.106a1.02 1.02 0 001.432-1.452l-1.431 1.452zm-8.667-8.54l8.668 8.54 1.431-1.452-8.668-8.541-1.431 1.453z" fill="#293A80"/><path d="M23.67 10.568a2.74 2.74 0 013.877.031l5.686 5.779a2.74 2.74 0 01-.031 3.875l-5.255 5.172a1.083 1.083 0 01-1.532-.013l-8.011-8.14a1.084 1.084 0 01.012-1.533l5.255-5.171z" fill="#293A80" stroke="#7577CD" stroke-width=".127"/><path d="M14.598 19.726a2.804 2.804 0 00.039 3.966l5.788 5.677a2.804 2.804 0 003.965-.038l1.347-1.374a1.147 1.147 0 00-.015-1.622l-8.154-7.998a1.147 1.147 0 00-1.623.016l-1.347 1.373z" fill="#080957"/><path d="M12.634 33.858h9.943" stroke="#080957" stroke-width="2.041" stroke-linecap="round"/></g><defs><clipPath id="clip0_702_138401"><path fill="#fff" d="M0 0h160v44H0z"/></clipPath></defs></svg>