<svg width="41" height="38" fill="none" xmlns="http://www.w3.org/2000/svg"><rect x=".5" y=".5" width="39.703" height="37.125" rx="6.188" fill="#F3F5FC"/><path d="M29.922 27.59a.86.86 0 001.208-1.226l-1.208 1.226zm-7.314-7.207l7.314 7.207 1.208-1.226-7.314-7.206-1.208 1.225z" fill="#293A80"/><path d="M23.742 9.443l4.799 4.876c.895.91.883 2.374-.027 3.27l-4.434 4.363a.914.914 0 01-1.292-.01l-6.76-6.87a.914.914 0 01.01-1.292l4.434-4.363a2.312 2.312 0 013.27.026z" fill="#293A80" stroke="#7577CD" stroke-width=".108"/><path d="M12.817 17.144c-.915.933-.9 2.43.033 3.346l4.883 4.79c.933.915 2.431.9 3.346-.033l1.137-1.158a.968.968 0 00-.013-1.37l-6.88-6.747a.968.968 0 00-1.37.013l-1.136 1.159z" fill="#080957"/><path d="M11.16 29.067h8.39" stroke="#080957" stroke-width="1.722" stroke-linecap="round"/></svg>