<svg width="45" height="45" fill="none" xmlns="http://www.w3.org/2000/svg"><path d="M33.5 29.534c2.67 1.341 4.958 3.493 6.628 6.184.33.532.496.799.553 1.168.117.75-.396 1.671-1.094 1.968-.344.146-.73.146-1.504.146m-8.25-17.358a8.25 8.25 0 004.584-7.392 8.25 8.25 0 00-4.584-7.392m-3.666 7.392a8.25 8.25 0 11-16.5 0 8.25 8.25 0 0116.5 0zM5.192 35.22C8.115 30.832 12.727 28 17.917 28c5.19 0 9.802 2.832 12.725 7.22.64.962.96 1.442.923 2.056-.029.479-.342 1.064-.724 1.353-.49.371-1.166.371-2.515.371H7.508c-1.35 0-2.025 0-2.515-.371-.382-.289-.696-.874-.725-1.352-.036-.615.284-1.095.924-2.057z" stroke="#000" stroke-width="2" stroke-linecap="round" stroke-linejoin="round"/></svg>