<svg width="45" height="45" fill="none" xmlns="http://www.w3.org/2000/svg"><path d="M24.335 9.667c0 2.025-4.515 3.666-10.084 3.666S4.168 11.692 4.168 9.667m20.167 0C24.335 7.642 19.82 6 14.25 6S4.168 7.642 4.168 9.667m20.167 0v2.75M4.168 9.667v22c0 2.025 4.514 3.666 10.083 3.666m0-14.666c-.309 0-.614-.005-.916-.015-5.14-.169-9.167-1.74-9.167-3.652m10.083 11c-5.569 0-10.083-1.642-10.083-3.667m36.667-2.75c0 2.025-4.515 3.667-10.084 3.667s-10.083-1.642-10.083-3.667m20.167 0c0-2.025-4.515-3.666-10.084-3.666s-10.083 1.641-10.083 3.666m20.167 0v13.75C40.835 37.358 36.32 39 30.75 39s-10.083-1.642-10.083-3.667v-13.75m20.167 6.875c0 2.025-4.515 3.667-10.084 3.667s-10.083-1.642-10.083-3.667" stroke="#080957" stroke-width="2" stroke-linecap="round" stroke-linejoin="round"/></svg>