<svg width="47" height="28" fill="none" xmlns="http://www.w3.org/2000/svg"><g clip-path="url(#clip0_704_98501)"><path d="M46.01 14c0 7.566-6.112 13.75-13.752 13.75-7.566 0-13.75-6.184-13.75-13.75 0-7.567 6.111-13.751 13.678-13.751 7.712 0 13.823 6.184 13.823 13.75z" fill="#FFB600"/><path d="M32.258.249c7.567 0 13.751 6.184 13.751 13.75 0 7.567-6.111 13.752-13.75 13.752-7.567 0-13.751-6.185-13.751-13.751" fill="#F7981D"/><path d="M32.258.249c7.567 0 13.751 6.184 13.751 13.75 0 7.567-6.111 13.752-13.75 13.752" fill="#FF8500"/><path d="M13.778.249C6.285.322.173 6.433.173 13.999c0 7.567 6.112 13.752 13.75 13.752 3.566 0 6.767-1.383 9.24-3.565.51-.437.947-.946 1.383-1.456H21.71a16.774 16.774 0 01-1.019-1.382h4.875a9.37 9.37 0 00.8-1.455H19.89a8.666 8.666 0 01-.582-1.455h7.566c.437-1.382.728-2.837.728-4.365 0-1.019-.146-1.965-.291-2.91h-8.44c.073-.51.219-.947.364-1.456h7.567a8.667 8.667 0 00-.582-1.455h-6.403c.218-.51.51-.946.8-1.455h4.875a6.919 6.919 0 00-1.091-1.455h-2.692c.436-.51.873-.946 1.382-1.382-2.4-2.256-5.675-3.565-9.24-3.565 0-.146 0-.146-.073-.146z" fill="#FF5050"/><path d="M.173 14c0 7.567 6.112 13.751 13.75 13.751 3.566 0 6.767-1.382 9.24-3.565.51-.436.947-.946 1.383-1.455H21.71a16.758 16.758 0 01-1.019-1.382h4.875a9.38 9.38 0 00.8-1.456H19.89a8.666 8.666 0 01-.582-1.455h7.566c.437-1.382.728-2.837.728-4.365 0-1.018-.146-1.964-.291-2.91h-8.44c.073-.51.219-.946.364-1.455h7.567a8.667 8.667 0 00-.582-1.455h-6.403c.218-.51.51-.946.8-1.455h4.875a6.92 6.92 0 00-1.091-1.456h-2.692c.436-.509.873-.945 1.382-1.382-2.4-2.255-5.675-3.565-9.24-3.565h-.073" fill="#E52836"/><path d="M13.924 27.751c3.565 0 6.766-1.382 9.24-3.565.51-.436.946-.946 1.382-1.455H21.71a16.758 16.758 0 01-1.019-1.382h4.875a9.38 9.38 0 00.8-1.456H19.89a8.675 8.675 0 01-.582-1.455h7.566c.437-1.382.728-2.837.728-4.365 0-1.018-.146-1.964-.291-2.91h-8.44c.073-.51.219-.946.364-1.455h7.567a8.668 8.668 0 00-.582-1.455h-6.403c.218-.51.51-.946.8-1.455h4.875a6.92 6.92 0 00-1.091-1.456h-2.692c.436-.509.873-.945 1.382-1.382-2.4-2.255-5.675-3.565-9.24-3.565h-.073" fill="#CB2026"/><path d="M18.798 17.492l.219-1.236c-.073 0-.219.072-.364.072-.51 0-.582-.29-.51-.436l.437-2.547h.8l.219-1.382h-.728l.146-.873H17.56s-.872 4.802-.872 5.384c0 .873.509 1.237 1.164 1.237.436 0 .8-.146.945-.219zm.51-2.328c0 2.037 1.382 2.546 2.546 2.546 1.092 0 1.528-.218 1.528-.218l.291-1.382s-.8.364-1.528.364c-1.6 0-1.31-1.164-1.31-1.164h2.984s.218-.946.218-1.31c0-.946-.51-2.11-2.11-2.11-1.528-.145-2.62 1.455-2.62 3.274zm2.546-2.11c.8 0 .655.946.655 1.019h-1.6c0-.073.145-1.019.945-1.019zm9.24 4.438l.291-1.6s-.727.364-1.237.364c-1.018 0-1.455-.8-1.455-1.674 0-1.746.873-2.692 1.892-2.692.727 0 1.31.437 1.31.437l.218-1.528s-.873-.364-1.674-.364c-1.673 0-3.346 1.455-3.346 4.22 0 1.819.873 3.056 2.619 3.056.582 0 1.382-.219 1.382-.219zm-20.298-5.747c-1.02 0-1.747.29-1.747.29l-.218 1.238s.655-.291 1.6-.291c.51 0 .947.072.947.509 0 .29-.073.364-.073.364h-.655c-1.237 0-2.62.509-2.62 2.182 0 1.31.874 1.6 1.383 1.6 1.019 0 1.455-.654 1.528-.654l-.073.582h1.31l.582-4.002c0-1.746-1.455-1.818-1.964-1.818zm.29 3.274c0 .218-.145 1.382-1.018 1.382-.437 0-.582-.364-.582-.582 0-.364.218-.873 1.31-.873.218.073.29.073.29.073zm3.056 2.618c.364 0 2.183.073 2.183-1.891 0-1.82-1.746-1.455-1.746-2.183 0-.364.29-.51.8-.51.218 0 1.019.073 1.019.073l.218-1.31s-.51-.145-1.383-.145c-1.09 0-2.182.437-2.182 1.892 0 1.673 1.819 1.528 1.819 2.183 0 .436-.51.509-.873.509-.655 0-1.31-.218-1.31-.218l-.218 1.31c.072.145.436.29 1.673.29zm29.03-7.057l-.291 1.965s-.582-.728-1.383-.728c-1.31 0-2.473 1.601-2.473 3.493 0 1.164.582 2.4 1.819 2.4.873 0 1.382-.581 1.382-.581l-.073.509h1.455l1.092-6.985-1.528-.072zm-.655 3.857c0 .8-.364 1.819-1.164 1.819-.51 0-.8-.437-.8-1.165 0-1.164.509-1.891 1.164-1.891.509 0 .8.364.8 1.237zM2.865 17.565l.873-5.238.146 5.238h1.018l1.892-5.238-.8 5.238H7.52l1.164-6.984h-2.4l-1.456 4.292-.072-4.292h-2.11l-1.164 6.984h1.382zm22.555 0c.436-2.4.508-4.365 1.527-4.002.146-.945.364-1.31.51-1.673h-.292c-.654 0-1.164.873-1.164.873l.146-.8h-1.383l-.945 5.675h1.6v-.073zm9.021-5.82c-1.019 0-1.746.29-1.746.29l-.218 1.238s.654-.291 1.6-.291c.51 0 .946.072.946.509 0 .29-.073.364-.073.364h-.655c-1.236 0-2.619.509-2.619 2.182 0 1.31.873 1.6 1.383 1.6 1.018 0 1.455-.654 1.528-.654l-.073.582h1.31l.581-4.002c.073-1.746-1.455-1.818-1.964-1.818zm.364 3.274c0 .218-.146 1.382-1.019 1.382-.436 0-.582-.364-.582-.582 0-.364.218-.873 1.31-.873.218.073.218.073.29.073zm2.837 2.546c.437-2.4.51-4.365 1.528-4.002.145-.945.364-1.31.51-1.673h-.292c-.654 0-1.164.873-1.164.873l.146-.8h-1.383l-.946 5.675h1.601v-.073z" fill="#fff"/><path d="M16.543 16.474c0 .873.51 1.237 1.164 1.237.51 0 .946-.146 1.091-.219l.219-1.236c-.073 0-.219.072-.364.072-.51 0-.582-.29-.51-.436l.437-2.547h.8l.219-1.382h-.728l.146-.873m1.018 4.074c0 2.037.655 2.546 1.82 2.546 1.09 0 1.527-.218 1.527-.218l.291-1.382s-.8.364-1.528.364c-1.6 0-1.31-1.164-1.31-1.164h2.984s.218-.946.218-1.31c0-.946-.51-2.11-2.11-2.11-1.528-.145-1.892 1.455-1.892 3.274zm1.82-2.11c.8 0 .945.946.945 1.019h-1.892c0-.073.146-1.019.946-1.019zm9.239 4.438l.291-1.6s-.727.364-1.237.364c-1.018 0-1.455-.8-1.455-1.674 0-1.746.873-2.692 1.892-2.692.728 0 1.31.437 1.31.437l.218-1.528s-.873-.364-1.674-.364c-1.673 0-2.619 1.455-2.619 4.22 0 1.819.146 3.056 1.892 3.056.582 0 1.382-.219 1.382-.219zM8.831 13.345s.655-.29 1.6-.29c.51 0 .947.072.947.508 0 .291-.073.364-.073.364h-.655c-1.237 0-2.62.51-2.62 2.183 0 1.31.874 1.6 1.383 1.6 1.019 0 1.455-.654 1.528-.654l-.073.582h1.31l.582-4.002c0-1.673-1.455-1.746-2.037-1.746m1.091 3.129c0 .218-.873 1.382-1.746 1.382-.437 0-.582-.364-.582-.582 0-.364.218-.873 1.31-.873.218.073 1.018.073 1.018.073zm.727 2.473s.437.145 1.674.145c.364 0 2.183.073 2.183-1.891 0-1.82-1.747-1.455-1.747-2.183 0-.364.291-.51.8-.51.219 0 1.02.073 1.02.073l.218-1.31s-.51-.145-1.383-.145c-1.091 0-1.455.437-1.455 1.892 0 1.673 1.091 1.528 1.091 2.183 0 .436-.509.509-.873.509m28.811-3.711s-.581-.727-1.382-.727c-1.31 0-1.746 1.6-1.746 3.492 0 1.164-.145 2.401 1.091 2.401.873 0 1.383-.582 1.383-.582l-.073.51h1.455l1.092-6.985m-1.892 3.783c0 .8-.655 1.819-1.455 1.819-.51 0-.8-.436-.8-1.164 0-1.164.509-1.892 1.164-1.892.509 0 1.09.364 1.09 1.237zM2.865 17.565l.873-5.238.146 5.238h1.018l1.892-5.238-.8 5.238H7.52l1.164-6.984H6.867l-2.038 4.292-.072-4.292h-.8l-2.474 6.984h1.382zm21.026 0h1.528c.437-2.4.51-4.365 1.528-4.002.146-.945.364-1.31.51-1.673h-.292c-.654 0-1.164.873-1.164.873l.146-.8m6.33 1.382s.654-.29 1.6-.29c.51 0 .946.072.946.508 0 .291-.073.364-.073.364h-.655c-1.236 0-2.619.51-2.619 2.183 0 1.31.873 1.6 1.383 1.6 1.018 0 1.455-.654 1.528-.654l-.073.582h1.31l.581-4.002c0-1.673-1.455-1.746-2.037-1.746m1.092 3.129c0 .218-.873 1.382-1.747 1.382-.436 0-.582-.364-.582-.582 0-.364.219-.873 1.31-.873.291.073 1.019.073 1.019.073zm.654 2.546h1.528c.437-2.4.51-4.365 1.528-4.002.145-.945.364-1.31.51-1.673h-.292c-.654 0-1.164.873-1.164.873l.146-.8" fill="#DCE5E5"/></g><defs><clipPath id="clip0_704_98501"><path fill="#fff" transform="translate(.173 .249)" d="M0 0h45.836v27.502H0z"/></clipPath></defs></svg>