<svg width="98" height="28" fill="none" xmlns="http://www.w3.org/2000/svg"><g clip-path="url(#clip0_704_98530)" fill-rule="evenodd" clip-rule="evenodd"><path d="M27.024.249v.012c-.012 0-3.794-.012-4.803 3.603a4049.575 4049.575 0 01-3.603 12.718h-.72s-2.667-9.355-3.604-12.73C13.287.237 9.491.249 9.491.249H.844v27.502h8.647V11.418h.72l5.044 16.333h6.005l5.044-16.321h.72v16.32h8.647V.25h-8.646zm31.586 0s-2.535.228-3.724 2.882l-6.125 13.45h-.72V.25h-8.647v27.502h8.167s2.654-.24 3.843-2.883l6.004-13.45h.72V27.75h8.648V.249h-8.167zM70.619 12.74v15.01h8.646v-8.767h9.368a9.356 9.356 0 008.827-6.245H70.619z" fill="#4DB45E"/><path d="M88.633.249H69.406c.96 5.236 4.887 9.44 9.967 10.809 1.153.312 2.366.48 3.615.48h14.82A9.23 9.23 0 0098 9.616 9.364 9.364 0 0088.633.25z" fill="url(#paint0_linear_704_98530)"/></g><defs><linearGradient id="paint0_linear_704_98530" x1="69.408" y1="5.893" x2="98" y2="5.893" gradientUnits="userSpaceOnUse"><stop offset=".3" stop-color="#00B4E6"/><stop offset="1" stop-color="#088CCB"/></linearGradient><clipPath id="clip0_704_98530"><path fill="#fff" transform="translate(.844 .249)" d="M0 0h97.156v27.502H0z"/></clipPath></defs></svg>