<svg width="162" height="167" fill="none" xmlns="http://www.w3.org/2000/svg"><path d="M140.499 88.168a24.226 24.226 0 016.334 15.833 24.228 24.228 0 01-6.334 15.834m0-31.667a24.225 24.225 0 00-6.333 15.833 24.227 24.227 0 006.333 15.834m0-31.667c-8.744 0-15.833 7.089-15.833 15.833 0 8.745 7.089 15.834 15.833 15.834m0-31.667c8.745 0 15.834 7.089 15.834 15.833 0 8.745-7.089 15.834-15.834 15.834m-15.041-20.584h30.083m-30.083 9.5h30.083" stroke="#FF6D02" stroke-linecap="round" stroke-linejoin="round"/><rect x="34.336" y="26.707" width="103.545" height="109.069" rx="4.5" fill="#fff" stroke="#080957"/><path d="M34.336 31.207a4.5 4.5 0 014.5-4.5h94.545a4.5 4.5 0 014.5 4.5v14.417H34.336V31.207z" stroke="#080957"/><ellipse cx="45.783" cy="36.689" rx="3.983" ry="4.193" fill="#080957"/><ellipse cx="56.737" cy="36.689" rx="3.983" ry="4.193" fill="#080957"/><ellipse cx="67.69" cy="36.689" rx="3.983" ry="4.193" fill="#080957"/><path d="M34.5 42l.67 14.46 10.29-9.731-9.342 10.719L50 58.146l-13.882.698 9.342 10.719-10.29-9.732-.67 14.46-.67-14.46-10.29 9.732 9.342-10.719L19 58.146l13.882-.698-9.342-10.719 10.29 9.731L34.5 42z" fill="#FF6D02"/><circle cx="34.57" cy="58.074" r="2.906" fill="#FF6D02"/><path d="M56.5 58l.945 2.555L60 61.5l-2.555.945L56.5 65l-.945-2.555L53 61.5l2.555-.945L56.5 58z" fill="#080957"/><path d="M152.5 12l.945 2.555L156 15.5l-2.555.945L152.5 19l-.945-2.555L149 15.5l2.555-.945L152.5 12z" fill="#FF6D02"/><circle cx="122" cy="35" r="2" fill="#080957"/><circle cx="46.5" cy="117.5" r="2.5" fill="#080957"/><path stroke="#080957" stroke-width=".893" d="M49.681 134.16l3.505-2.763 7.551 9.577-3.505 2.763z"/><path d="M56.271 144.035l5.175-4.08 16.362 20.752a3.295 3.295 0 01-5.174 4.08L56.27 144.035z" fill="#fff" stroke="#080957" stroke-width=".893"/><circle cx="37.997" cy="116.478" r="23.209" transform="rotate(-83.255 37.997 116.478)" fill="#fff" stroke="#080957" stroke-width=".893"/><circle cx="37.994" cy="116.48" r="17.853" transform="rotate(-83.255 37.994 116.48)" stroke="#080957" stroke-width=".893"/><path stroke="#080957" stroke-width=".893" stroke-linecap="round" d="M45.045 125.629l-13.913-17.645m14.05 12.719l-8.445-10.71"/><path d="M100.333 81.957V71.032c0-3.22 0-4.83-.627-6.06a5.75 5.75 0 00-2.513-2.513c-1.23-.627-2.84-.627-6.06-.627H78.866c-3.22 0-4.83 0-6.06.627a5.75 5.75 0 00-2.513 2.513c-.627 1.23-.627 2.84-.627 6.06v19.933c0 3.22 0 4.83.627 6.06a5.75 5.75 0 002.513 2.514c1.23.626 2.84.626 6.06.626h6.133m3.834-21.083h-11.5m3.833 7.667h-3.833m15.333-15.334H77.333m12.458 23l3.833 3.834 8.625-8.625" stroke="#080957" stroke-width="3" stroke-linecap="round" stroke-linejoin="round"/></svg>