<svg width="294" height="184" fill="none" xmlns="http://www.w3.org/2000/svg"><path d="M48.203 158l3.296 9.402 8.907 3.479-8.907 3.479-3.296 9.402-3.296-9.402L36 170.881l8.907-3.479L48.203 158zM8.813 62l2.38 6.433 6.434 2.38-6.433 2.38-2.38 6.434-2.381-6.433L0 70.814l6.433-2.381L8.813 62zm245.967 6l1.831 4.948 4.948 1.832-4.948 1.83-1.831 4.95-1.832-4.95L248 74.78l4.948-1.832L254.78 68z" fill="#FF8539"/><rect x="30.96" y="43.706" width="178.643" height="44.243" rx="3.757" fill="#fff" stroke="#080957" stroke-width=".835"/><rect x="45.988" y="75.425" width="178.643" height="44.243" rx="3.757" fill="#fff" stroke="#080957" stroke-width=".835"/><path d="M69.779 90.869a2.087 2.087 0 100 4.174 2.087 2.087 0 000-4.174zm0 0v-1.67m7.513 10.8a9.993 9.993 0 01-7.513 3.392 9.993 9.993 0 01-7.513-3.392m6.465-5.239l-6.465 11.135m8.56-11.135l6.466 11.135" stroke="#080957" stroke-width="1.67" stroke-linecap="round" stroke-linejoin="round"/><rect x="63.519" y="100.472" width="178.643" height="44.243" rx="3.757" fill="#fff" stroke="#080957" stroke-width=".835"/><path stroke="#080957" stroke-width=".835" d="M108.176 36.192h7.513m5.842 0h97.67M140.73 54.559h5.844m4.176 0h38.4"/><path d="M85.638 116.748a2.087 2.087 0 100 4.173 2.087 2.087 0 000-4.173zm0 0v-1.67m7.513 10.8a9.992 9.992 0 01-7.513 3.391 9.992 9.992 0 01-7.513-3.391m6.465-5.239l-6.465 11.135m8.56-11.135l6.466 11.135" stroke="#080957" stroke-width="1.67" stroke-linecap="round" stroke-linejoin="round"/><path d="M262.131 93.023v20.739m7.777-18.146l-15.554 15.553m18.146-7.776h-20.738m18.146 7.776l-15.554-15.553" stroke="#080957" stroke-width=".451" stroke-linecap="round" stroke-linejoin="round"/><path d="M27.203 91.703v55.931c0 6.454 5.233 11.687 11.687 11.687h125.217" stroke="#080957" stroke-width=".835"/><circle cx="164.525" cy="158.904" r="4.174" fill="#080957" stroke="#080957" stroke-width=".835"/><circle cx="26.787" cy="95.462" r="4.174" fill="#080957" stroke="#080957" stroke-width=".835"/><path d="M233.065 66.868l-5.314-4.8m-4.572 0l-5.314 4.8m-.4-8.8l6.532 4.572c.529.37.793.556 1.081.627.254.064.52.064.774 0 .288-.071.552-.256 1.081-.627l6.532-4.572m-12.16 10.4h8.32c1.344 0 2.016 0 2.529-.262.452-.23.819-.597 1.049-1.049.262-.513.262-1.185.262-2.529v-5.12c0-1.344 0-2.016-.262-2.53a2.397 2.397 0 00-1.049-1.048c-.513-.262-1.185-.262-2.529-.262h-8.32c-1.344 0-2.016 0-2.53.262-.451.23-.818.597-1.049 1.048-.261.514-.261 1.186-.261 2.53v5.12c0 1.344 0 2.016.261 2.53.231.451.598.818 1.049 1.048.514.262 1.186.262 2.53.262z" stroke="#080957" stroke-width=".835" stroke-linecap="round" stroke-linejoin="round"/><path d="M186.318 142.82l5.233 16.263 3.677-3.677 4.596 4.597 3.677-3.677-4.597-4.597 3.677-3.676-16.263-5.233z" fill="#FF8539"/><path d="M186.954 136.456v-1.909m-5.014 3.895l-1.35-1.35m1.35 11.456l-1.35 1.35m11.456-11.456l1.35-1.35m-13.442 6.364h-1.909m8.273-.636l5.233 16.263 3.677-3.677 4.596 4.597 3.677-3.677-4.597-4.597 3.677-3.676-16.263-5.233z" stroke="#FF8539" stroke-width=".885" stroke-linecap="round" stroke-linejoin="round"/><path d="M52.247 58.314a2.087 2.087 0 100 4.174 2.087 2.087 0 000-4.174zm0 0v-1.67m7.514 10.8a9.993 9.993 0 01-7.514 3.392 9.993 9.993 0 01-7.513-3.391m6.466-5.24L44.734 73.34m8.561-11.134L59.76 73.34" stroke="#080957" stroke-width="1.67" stroke-linecap="round" stroke-linejoin="round"/></svg>