<svg width="204" height="151" fill="none" xmlns="http://www.w3.org/2000/svg"><rect x="30" y="35.5" width="140" height="115" rx="4.5" fill="#fff" stroke="#080957"/><path d="M97.997 74.496c.643-1.284.965-1.926 1.401-2.132a1.42 1.42 0 011.202 0c.437.206.758.847 1.402 2.132l6.104 12.182c.19.38.285.569.424.716.123.13.27.236.434.31.185.085.397.116.822.177l13.655 1.966c1.438.207 2.157.31 2.489.657.29.3.426.714.371 1.125-.063.473-.584.972-1.625 1.971l-9.877 9.477c-.308.295-.462.443-.561.618a1.368 1.368 0 00-.166.504c-.025.2.011.408.084.825l2.331 13.386c.245 1.412.368 2.117.137 2.536-.201.365-.558.62-.972.696-.476.087-1.119-.246-2.406-.913l-12.207-6.324c-.381-.197-.571-.296-.771-.334a1.388 1.388 0 00-.537 0c-.2.038-.39.137-.771.334l-12.207 6.324c-1.287.667-1.931 1-2.407.913a1.395 1.395 0 01-.972-.696c-.23-.419-.108-1.124.138-2.536l2.33-13.386c.073-.417.11-.625.085-.825a1.365 1.365 0 00-.166-.504c-.1-.175-.254-.323-.562-.618L75.322 93.6c-1.04-.999-1.561-1.498-1.624-1.97a1.362 1.362 0 01.37-1.126c.333-.346 1.052-.45 2.49-.657l13.654-1.966c.425-.061.637-.092.822-.176.164-.075.311-.18.434-.311.14-.147.234-.337.424-.716l6.105-12.182z" stroke="#080957" stroke-width="3" stroke-linecap="round" stroke-linejoin="round"/><path d="M29.5 40a4.5 4.5 0 014.5-4.5h131a4.5 4.5 0 014.5 4.5v10.5h-140V40z" stroke="#080957"/><circle cx="38.5" cy="43.5" r="2" stroke="#080957"/><circle cx="46.5" cy="43.5" r="2" stroke="#080957"/><circle cx="54.5" cy="43.5" r="2" stroke="#080957"/><path d="M32.5 12l.67 14.46 10.29-9.731-9.342 10.719L48 28.146l-13.882.698 9.342 10.719-10.29-9.732-.67 14.46-.67-14.46-10.29 9.732 9.342-10.719L17 28.146l13.882-.698-9.342-10.719 10.29 9.731L32.5 12z" fill="#FF6D02"/><circle cx="32.57" cy="28.074" r="2.906" fill="#FF6D02"/><path d="M159.5 18l.945 2.555L163 21.5l-2.555.945L159.5 25l-.945-2.555L156 21.5l2.555-.945L159.5 18zm22 26l.945 2.555L185 47.5l-2.555.945L181.5 51l-.945-2.555L178 47.5l2.555-.945L181.5 44z" fill="#FF6D02"/></svg>