<svg width="192" height="130" fill="none" xmlns="http://www.w3.org/2000/svg"><rect x="19.982" y="46.482" width="140.037" height="31.037" rx="2.409" stroke="#080957" stroke-width=".963"/><path d="M119.118 62.155l.143.908.577-.715 8.595-10.65-4.926 12.768-.331.858.858-.331 12.769-4.926-10.651 8.595-.715.577.908.143 13.521 2.118-13.521 2.118-.908.143.715.577 10.651 8.595-12.769-4.926-.858-.331.331.858 4.926 12.769-8.595-10.65-.577-.717-.143.91L117 94.365l-2.118-13.52-.143-.91-.577.716-8.595 10.65 4.926-12.768.331-.858-.858.331-12.769 4.926 10.651-8.595.715-.577-.908-.143L94.134 71.5l13.521-2.118.908-.143-.715-.577-10.65-8.595 12.768 4.926.858.331-.331-.858-4.926-12.769 8.595 10.65.577.716.143-.908L117 48.634l2.118 13.52z" fill="#fff" stroke="#FF6D02" stroke-width=".815"/><path d="M121.6 71.823c-1.051-.308-1.576-.463-1.933-.33a1.148 1.148 0 00-.674.674c-.133.357.022.882.33 1.933l9.639 32.771c.287.975.431 1.463.72 1.69.253.198.577.28.894.228.362-.06.722-.42 1.441-1.139l6.983-6.983 10.162 10.162c.454.453.681.68.942.765.23.075.478.075.708 0 .262-.085.489-.312.943-.765l6.574-6.574c.453-.454.68-.681.765-.943.075-.23.075-.478 0-.708-.085-.261-.312-.488-.765-.942L148.167 91.5l6.983-6.983c.719-.72 1.079-1.079 1.139-1.441a1.148 1.148 0 00-.228-.894c-.227-.29-.715-.433-1.69-.72L121.6 71.823z" fill="#080957"/><path d="M25 15l2.296 6.57L33.5 24l-6.204 2.43L25 33l-2.296-6.57L16.5 24l6.204-2.43L25 15zm140 9l1.756 4.744L171.5 30.5l-4.744 1.756L165 37l-1.756-4.744L158.5 30.5l4.744-1.756L165 24zM17 88l1.756 4.744L23.5 94.5l-4.744 1.756L17 101l-1.756-4.744L10.5 94.5l4.744-1.756L17 88zm74.5 16l1.35 3.65L96.5 109l-3.65 1.35L91.5 114l-1.35-3.65L86.5 109l3.65-1.35L91.5 104zm81-12l1.35 3.65L177.5 97l-3.65 1.35-1.35 3.65-1.35-3.65L167.5 97l3.65-1.35L172.5 92z" fill="#FF6D02"/><path stroke="#080957" stroke-width="2.373" stroke-linecap="round" d="M29.686 55.814h63.628m-63.628 7h40.628"/></svg>