<svg width="135" height="132" fill="none" xmlns="http://www.w3.org/2000/svg"><path d="M19.276 7.102v34.551m12.957-30.232L6.319 37.334m30.233-12.957H2m30.233 12.957L6.319 11.42" stroke="#FF6D02" stroke-width="2.159" stroke-linecap="round" stroke-linejoin="round"/><rect x="43.237" y=".237" width="91.527" height="104.527" rx="4.97" fill="#fff" stroke="#080957" stroke-width=".473"/><path d="M43.237 5.206a4.97 4.97 0 014.97-4.97h81.587a4.97 4.97 0 014.969 4.97v14.557H43.237V5.206z" fill="#080957" stroke="#080957" stroke-width=".473"/><circle cx="55.5" cy="10.5" r="3.5" fill="#fff"/><circle cx="65.5" cy="10.5" r="3.5" fill="#fff"/><circle cx="75.5" cy="10.5" r="3.5" fill="#fff"/><path d="M32.293 46.383v50.644c0 9.149 7.417 16.566 16.566 16.566h31.238" stroke="#080957" stroke-width=".473"/><circle cx="32" cy="46" r="2" fill="#080957"/><circle cx="78.5" cy="113.5" r="1.5" fill="#080957"/><path d="M117.503 38.824s-14.27 4.679-24.564 16.142C82.646 66.43 76.651 79.53 76.651 79.53s-5-7.486-8.275-10.995c-3.276-3.51-10.294-7.508-10.294-7.508" stroke="#FF6D02" stroke-width="10.886" stroke-linecap="round" stroke-linejoin="round"/><path d="M81.413 75.907l3.174-3.016-1.024 4.257-.115.476.476-.115 4.257-1.024-3.016 3.174-.337.355.469.138 4.199 1.241-4.199 1.241-.47.14.338.354 3.016 3.174-4.257-1.025-.476-.114.115.476 1.024 4.257-3.174-3.016-.355-.337-.138.469-1.241 4.199-1.242-4.2-.138-.468-.355.337-3.174 3.016 1.025-4.257.114-.476-.476.114-4.257 1.025 3.016-3.174.337-.355-.469-.139-4.199-1.24 4.2-1.242.468-.138-.337-.355-3.015-3.174 4.256 1.024.476.115-.114-.476-1.025-4.257 3.174 3.016.355.337.138-.469 1.242-4.199 1.24 4.199.14.47.354-.338z" fill="#fff" stroke="#080957" stroke-width=".599"/><path d="M120.408 99.488c1.517-.59 2.275-.884 2.488-1.301a1.23 1.23 0 00-.015-1.147c-.224-.41-.99-.686-2.521-1.236L81.298 81.782c-1.253-.45-1.88-.675-2.29-.533a1.229 1.229 0 00-.759.76c-.142.41.083 1.036.533 2.289l14.022 39.062c.55 1.531.825 2.297 1.236 2.521a1.23 1.23 0 001.147.015c.417-.213.712-.971 1.301-2.488l6.384-16.416c.116-.297.173-.445.263-.57.079-.111.176-.208.287-.287.125-.089.273-.147.57-.263l16.416-6.384z" fill="#080957"/></svg>