<svg width="203" height="186" fill="none" xmlns="http://www.w3.org/2000/svg"><rect x="29.5" y="35.5" width="140" height="115" rx="4.5" fill="#fff" stroke="#080957"/><path d="M29.5 40a4.5 4.5 0 014.5-4.5h131a4.5 4.5 0 014.5 4.5v10.5h-140V40z" stroke="#080957"/><circle cx="38.5" cy="43.5" r="2" stroke="#080957"/><circle cx="46.5" cy="43.5" r="2" stroke="#080957"/><circle cx="54.5" cy="43.5" r="2" stroke="#080957"/><rect x="50.5" y="65.5" width="99" height="16" rx=".5" stroke="#080957"/><rect x="54.5" y="69.5" width="8" height="8" rx=".5" stroke="#080957"/><rect x="50.5" y="88.5" width="99" height="16" rx=".5" stroke="#080957"/><rect x="54.5" y="92.5" width="8" height="8" rx=".5" stroke="#080957"/><rect x="50.5" y="111.5" width="99" height="16" rx=".5" stroke="#080957"/><rect x="54.5" y="115.5" width="8" height="8" rx=".5" fill="#FF6D02" stroke="#FF6D02"/><path d="M32.5 12l.67 14.33 10.29-9.644-9.342 10.622L48 28l-13.882.692 9.342 10.622-10.29-9.644L32.5 44l-.67-14.33-10.29 9.644 9.342-10.622L17 28l13.882-.692-9.342-10.622 10.29 9.644L32.5 12z" fill="#FF6D02"/><circle cx="33" cy="28" r="3" fill="#FF6D02"/><path d="M71.978 134.406c-.725-.214-1.088-.32-1.335-.228a.791.791 0 00-.465.465c-.092.247.014.61.228 1.335l6.66 22.642c.197.674.297 1.012.497 1.168a.787.787 0 00.617.157c.25-.041.499-.29.996-.787l4.825-4.824 7.02 7.021c.314.313.47.47.652.529.159.052.33.052.489 0 .18-.059.337-.216.65-.529l4.543-4.542c.313-.314.47-.47.529-.651a.792.792 0 000-.489c-.059-.181-.216-.338-.53-.651l-7.02-7.021 4.824-4.825c.497-.497.746-.745.787-.996a.79.79 0 00-.157-.617c-.156-.2-.494-.3-1.168-.498l-22.642-6.659z" fill="#080957" stroke="#080957" stroke-width="2" stroke-linecap="round" stroke-linejoin="round"/><path d="M159.5 18l.945 2.555L163 21.5l-2.555.945L159.5 25l-.945-2.555L156 21.5l2.555-.945L159.5 18zm22 26l.945 2.555L185 47.5l-2.555.945L181.5 51l-.945-2.555L178 47.5l2.555-.945L181.5 44z" fill="#FF6D02"/></svg>