<?xml version="1.0" encoding="utf-8"?><svg viewBox="0 0 35 34" xmlns="http://www.w3.org/2000/svg" xmlns:xlink="http://www.w3.org/1999/xlink"><style>:root>svg{display:none}:root>svg:target{display:block}</style><svg fill="none" viewBox="0 0 24 24" id="icon-card" xmlns="http://www.w3.org/2000/svg"><path d="M22 9H2m0-1.2v8.4c0 1.68 0 2.52.327 3.162a3 3 0 001.311 1.311C4.28 21 5.12 21 6.8 21h10.4c1.68 0 2.52 0 3.162-.327a3 3 0 001.311-1.311C22 18.72 22 17.88 22 16.2V7.8c0-1.68 0-2.52-.327-3.162a3 3 0 00-1.311-1.311C19.72 3 18.88 3 17.2 3H6.8c-1.68 0-2.52 0-3.162.327a3 3 0 00-1.311 1.311C2 5.28 2 6.12 2 7.8z" stroke="currentColor" stroke-width="2" stroke-linecap="round" stroke-linejoin="round"/></svg><svg fill="none" viewBox="0 0 24 24" id="icon-caret" xmlns="http://www.w3.org/2000/svg"><path d="M19 9l-7 7-7-7" stroke="currentColor" stroke-linecap="round" stroke-linejoin="round"/></svg><svg fill="none" viewBox="0 0 17 17" id="icon-email" xmlns="http://www.w3.org/2000/svg"><path d="M14.834 12.5l-4.43-4m-3.809 0l-4.428 4m-.333-7.333l5.443 3.81c.44.309.66.463.9.523.212.052.434.052.646 0 .24-.06.46-.214.9-.523l5.444-3.81M5.034 13.833h6.933c1.12 0 1.68 0 2.108-.218a2 2 0 00.874-.874c.218-.428.218-.988.218-2.108V6.367c0-1.12 0-1.68-.218-2.108a2 2 0 00-.874-.874c-.428-.218-.988-.218-2.108-.218H5.033c-1.12 0-1.68 0-2.107.218a2 2 0 00-.875.874c-.218.427-.218.988-.218 2.108v4.266c0 1.12 0 1.68.218 2.108a2 2 0 00.875.874c.427.218.987.218 2.107.218z" stroke="#293A80" stroke-linecap="round" stroke-linejoin="round"/></svg><svg fill="none" viewBox="0 0 24 24" id="icon-email-bold" xmlns="http://www.w3.org/2000/svg"><path d="M3 8l7.89 5.26a2 2 0 002.22 0L21 8M5 19h14a2 2 0 002-2V7a2 2 0 00-2-2H5a2 2 0 00-2 2v10a2 2 0 002 2z" stroke="currentColor" stroke-width="2" stroke-linecap="round" stroke-linejoin="round"/></svg><svg fill="none" viewBox="0 0 17 17" id="icon-email-opened" xmlns="http://www.w3.org/2000/svg"><path d="M2.5 12.898V6.944a1.333 1.333 0 01.593-1.11l4.667-3.11a1.333 1.333 0 011.48 0l4.667 3.11a1.334 1.334 0 01.593 1.11v5.954m-12 0a1.333 1.333 0 001.333 1.333h9.334a1.333 1.333 0 001.333-1.333m-12 0l4.5-3m7.5 3l-4.5-3m-3 0l-4.5-3m4.5 3l.76.506a1.333 1.333 0 001.48 0l.76-.506m0 0l4.5-3" stroke="#293A80" stroke-linecap="round" stroke-linejoin="round"/></svg><svg fill="none" viewBox="0 0 24 24" id="icon-favorites" xmlns="http://www.w3.org/2000/svg"><path d="M11.283 3.453c.23-.467.345-.7.502-.775a.5.5 0 01.43 0c.157.075.272.308.502.775l2.187 4.43c.068.138.102.207.152.26a.502.502 0 00.155.114c.067.03.143.042.295.064l4.891.715c.515.075.773.113.892.238a.5.5 0 01.133.41c-.023.172-.21.353-.582.716L17.3 13.846c-.11.108-.165.162-.2.226a.5.5 0 00-.06.183c-.009.072.004.148.03.3l.835 4.867c.088.514.132.77.05.922a.5.5 0 01-.349.253c-.17.032-.4-.09-.862-.332l-4.373-2.3c-.136-.07-.204-.107-.276-.12a.498.498 0 00-.192 0c-.072.013-.14.05-.276.12l-4.373 2.3c-.461.243-.692.364-.862.332a.5.5 0 01-.348-.253c-.083-.152-.039-.409.05-.922l.834-4.867c.026-.152.039-.228.03-.3a.5.5 0 00-.06-.184c-.035-.063-.09-.117-.2-.225L3.16 10.4c-.373-.363-.56-.544-.582-.716a.5.5 0 01.132-.41c.12-.125.377-.163.892-.238l4.891-.715c.152-.022.228-.034.295-.064a.5.5 0 00.155-.113c.05-.054.084-.123.152-.26l2.187-4.43z" stroke="currentColor" stroke-width="2" stroke-linecap="round" stroke-linejoin="round"/></svg><svg fill="none" viewBox="0 0 25 24" id="icon-img-plug" xmlns="http://www.w3.org/2000/svg"><path d="M6.5 20l8.869-8.869c.396-.396.594-.594.822-.668a1 1 0 01.618 0c.228.074.426.272.822.668l4.274 4.274M11 8.5a2 2 0 11-4 0 2 2 0 014 0zM22.5 12c0 5.523-4.477 10-10 10s-10-4.477-10-10 4.477-10 10-10 10 4.477 10 10z" stroke="#080957" stroke-width="2" stroke-linecap="round" stroke-linejoin="round"/></svg><svg fill="none" viewBox="0 0 18 18" id="icon-info-circle" xmlns="http://www.w3.org/2000/svg"><path d="M9 12V9m0-3h.008M16.5 9a7.5 7.5 0 11-15 0 7.5 7.5 0 0115 0z" stroke="#293A80" stroke-linecap="round" stroke-linejoin="round"/></svg><svg fill="none" viewBox="0 0 17 16" id="icon-location" xmlns="http://www.w3.org/2000/svg"><path d="M8.5 8.667a2 2 0 100-4 2 2 0 000 4z" stroke="#353535" stroke-linecap="round" stroke-linejoin="round"/><path d="M8.5 14.667c2.667-2.666 5.333-5.054 5.333-8a5.333 5.333 0 10-10.666 0c0 2.946 2.666 5.334 5.333 8z" stroke="#353535" stroke-linecap="round" stroke-linejoin="round"/></svg><svg fill="none" viewBox="0 0 35 34" id="icon-notification" xmlns="http://www.w3.org/2000/svg"><path d="M19 26h-4m8-13a6 6 0 10-12 0c0 3.09-.78 5.206-1.65 6.605-.735 1.18-1.102 1.771-1.089 1.936.015.182.054.252.2.36.133.099.732.099 1.928.099H23.61c1.196 0 1.795 0 1.927-.098.147-.11.186-.179.2-.361.014-.165-.353-.755-1.088-1.936C23.78 18.206 23 16.09 23 13z" stroke="currentColor" stroke-linecap="round" stroke-linejoin="round"/></svg><svg fill="none" viewBox="0 0 25 24" id="icon-notification-ringing" xmlns="http://www.w3.org/2000/svg"><path d="M9.854 21c.706.622 1.632 1 2.646 1 1.015 0 1.94-.378 2.646-1M2.794 5.82A4.007 4.007 0 014.826 2.3m17.376 3.52A4.007 4.007 0 0020.17 2.3M18.5 8a6 6 0 10-12 0c0 3.09-.78 5.206-1.65 6.605-.735 1.18-1.102 1.771-1.088 1.936.014.182.053.252.2.36.133.099.73.099 1.927.099h13.222c1.197 0 1.795 0 1.927-.098.147-.11.186-.179.2-.361.014-.165-.353-.755-1.087-1.936C19.28 13.206 18.5 11.09 18.5 8z" stroke="currentColor" stroke-linecap="round" stroke-linejoin="round"/></svg><svg fill="none" viewBox="0 0 29 29" id="icon-ok" xmlns="http://www.w3.org/2000/svg"><path d="M14.66 11.538a2.449 2.449 0 100-4.897 2.449 2.449 0 000 4.897z" fill="currentColor"/><path d="M14.5 0C6.492 0 0 6.492 0 14.5S6.492 29 14.5 29 29 22.508 29 14.5 22.508 0 14.5 0zm.16 4.112a4.977 4.977 0 110 9.954 4.977 4.977 0 010-9.954zm4.424 12.823c-1.058.68-2.508.936-3.455 1.034l.792.792 2.933 2.933a1.141 1.141 0 010 1.614l-.134.134a1.141 1.141 0 01-1.614 0l-2.933-2.932-2.933 2.932a1.141 1.141 0 01-1.614 0l-.134-.134a1.141 1.141 0 010-1.614l2.932-2.933.79-.79c-.946-.095-2.412-.351-3.479-1.036-1.249-.802-1.802-1.278-1.312-2.262.28-.564 1.059-1.034 2.093-.219 1.398 1.102 3.644 1.102 3.644 1.102s2.245 0 3.643-1.102c1.035-.815 1.813-.345 2.094.22.49.984-.064 1.46-1.313 2.261z" fill="currentColor"/></svg><svg fill="none" viewBox="0 0 24 25" id="icon-plus" xmlns="http://www.w3.org/2000/svg"><path d="M20 12.5H4m8-8v16-16z" stroke="#F9F9F9" stroke-linecap="round" stroke-linejoin="round"/></svg><svg fill="none" viewBox="0 0 24 24" id="icon-search" xmlns="http://www.w3.org/2000/svg"><path d="M21 21l-3.5-3.5m2.5-6a8.5 8.5 0 11-17 0 8.5 8.5 0 0117 0z" stroke="#080957" stroke-width="2" stroke-linecap="round" stroke-linejoin="round"/></svg><svg fill="none" viewBox="0 0 24 24" id="icon-settings" xmlns="http://www.w3.org/2000/svg"><path d="M12 15a3 3 0 100-6 3 3 0 000 6z" stroke="currentColor" stroke-width="2" stroke-linecap="round" stroke-linejoin="round"/><path d="M9.29 19.371l.584 1.315a2.213 2.213 0 004.044 0l.585-1.315a2.426 2.426 0 012.47-1.423l1.43.152a2.212 2.212 0 002.022-3.502l-.847-1.164a2.428 2.428 0 01-.46-1.434c0-.513.163-1.014.465-1.429l.847-1.163a2.212 2.212 0 00-2.023-3.502l-1.43.152a2.433 2.433 0 01-1.47-.312 2.425 2.425 0 01-1-1.117l-.588-1.315a2.212 2.212 0 00-4.045 0L9.29 4.63c-.207.468-.558.86-1 1.117-.445.256-.96.365-1.47.312l-1.435-.152a2.212 2.212 0 00-2.022 3.502l.847 1.163a2.43 2.43 0 010 2.858l-.847 1.163a2.21 2.21 0 00.786 3.273c.381.195.81.274 1.236.23l1.43-.153a2.434 2.434 0 012.475 1.43z" stroke="currentColor" stroke-width="2" stroke-linecap="round" stroke-linejoin="round"/></svg><svg fill="none" viewBox="0 0 25 24" id="icon-star" xmlns="http://www.w3.org/2000/svg"><path d="M11.783 3.453c.23-.467.345-.7.502-.775a.5.5 0 01.43 0c.157.074.272.308.502.775l2.187 4.43c.068.137.102.206.152.26a.501.501 0 00.155.113c.067.03.143.042.295.064l4.891.715c.515.075.773.113.892.239a.5.5 0 01.133.409c-.023.172-.21.353-.582.717L17.8 13.846c-.11.107-.165.16-.2.225a.5.5 0 00-.06.183c-.009.072.004.148.03.3l.835 4.867c.088.514.132.77.05.923a.5.5 0 01-.349.253c-.17.031-.4-.09-.862-.332l-4.373-2.3c-.136-.072-.204-.107-.276-.121a.498.498 0 00-.192 0c-.072.014-.14.05-.276.121l-4.373 2.3c-.461.242-.692.363-.862.332a.5.5 0 01-.348-.253c-.083-.153-.039-.41.05-.923l.834-4.867c.026-.152.039-.228.03-.3a.5.5 0 00-.06-.183c-.035-.064-.09-.118-.2-.225L3.66 10.4c-.373-.364-.56-.545-.582-.717a.5.5 0 01.132-.41c.12-.125.377-.163.892-.238l4.891-.715c.152-.022.228-.033.295-.064a.5.5 0 00.155-.113c.05-.054.084-.123.152-.26l2.187-4.43z" stroke="currentColor" stroke-linecap="round" stroke-linejoin="round"/></svg><svg fill="none" viewBox="0 0 15 16" id="icon-thumbs-down" xmlns="http://www.w3.org/2000/svg"><path d="M10.625 1.75v6.875m3.125-2V3.75c0-.7 0-1.05-.136-1.317a1.25 1.25 0 00-.547-.547c-.267-.136-.617-.136-1.317-.136H5.074c-.914 0-1.37 0-1.74.167a1.875 1.875 0 00-.796.683c-.221.34-.29.791-.43 1.694l-.326 2.125c-.184 1.19-.275 1.786-.098 2.25.155.406.446.746.825.96.43.246 1.033.246 2.238.246h.503c.35 0 .525 0 .659.068.117.06.213.156.273.273.068.134.068.309.068.659v1.834c0 .851.69 1.541 1.541 1.541.203 0 .387-.12.47-.305l2.1-4.726c.095-.215.143-.323.219-.401a.624.624 0 01.24-.156c.102-.037.22-.037.455-.037h.475c.7 0 1.05 0 1.317-.136a1.25 1.25 0 00.547-.547c.136-.267.136-.617.136-1.317z" stroke="#080957" stroke-linecap="round" stroke-linejoin="round"/></svg><svg fill="none" viewBox="0 0 15 16" id="icon-thumbs-up" xmlns="http://www.w3.org/2000/svg"><path d="M4.375 14.25V7.375M1.25 8.625V13c0 .69.56 1.25 1.25 1.25h8.391c.926 0 1.713-.675 1.854-1.59l.673-4.375a1.875 1.875 0 00-1.853-2.16h-2.19A.625.625 0 018.75 5.5V3.291c0-.851-.69-1.541-1.541-1.541a.514.514 0 00-.47.305L4.54 7.004a.625.625 0 01-.571.371H2.5c-.69 0-1.25.56-1.25 1.25z" stroke="#080957" stroke-linecap="round" stroke-linejoin="round"/></svg><svg fill="none" viewBox="0 0 24 24" id="icon-time" xmlns="http://www.w3.org/2000/svg"><path d="M12 6v6l4 2m6-2c0 5.523-4.477 10-10 10S2 17.523 2 12 6.477 2 12 2s10 4.477 10 10z" stroke="currentColor" stroke-width="2" stroke-linecap="round" stroke-linejoin="round"/></svg><svg fill="none" viewBox="0 0 25 24" id="icon-tranding-down" xmlns="http://www.w3.org/2000/svg"><path d="M21.5 17l-8-8-4 4-6-6m10 10h8-8zm8 0V9v8z" stroke="#248222" stroke-width="2" stroke-linecap="round" stroke-linejoin="round"/></svg><svg fill="none" viewBox="0 0 25 24" id="icon-tranding-up" xmlns="http://www.w3.org/2000/svg"><path d="M21.5 7l-8 8-4-4-6 6m10-10h8-8zm8 0v8-8z" stroke="#961D14" stroke-width="2" stroke-linecap="round" stroke-linejoin="round"/></svg><svg fill="none" viewBox="0 0 24 24" id="icon-view-all" xmlns="http://www.w3.org/2000/svg"><path d="M9 18l6-6-6-6" stroke="currentColor" stroke-linecap="round" stroke-linejoin="round"/></svg><svg fill="none" viewBox="0 0 24 24" id="icon-view-all-up" xmlns="http://www.w3.org/2000/svg"><path d="M7 17L17 7m0 0H7m10 0v10" stroke="currentColor" stroke-linecap="round" stroke-linejoin="round"/></svg><svg fill="none" viewBox="0 0 29 29" id="icon-vk" xmlns="http://www.w3.org/2000/svg"><path d="M14.5 0C6.492 0 0 6.492 0 14.5S6.492 29 14.5 29 29 22.508 29 14.5 22.508 0 14.5 0zm6.288 16.417c.114.14.385.416.815.825h.01l.01.01.01.01.02.02c.946.879 1.586 1.62 1.922 2.224.02.033.042.075.065.125s.047.14.07.267a.785.785 0 01-.005.342c-.026.1-.11.193-.251.277-.14.084-.339.125-.594.125l-2.575.04c-.161.034-.349.018-.564-.05a2.46 2.46 0 01-.523-.22l-.201-.122a4.714 4.714 0 01-.704-.644 17.81 17.81 0 01-.69-.78 3.35 3.35 0 00-.614-.583c-.218-.158-.407-.21-.568-.156a.798.798 0 00-.08.035 1.288 1.288 0 00-.387.443c-.065.117-.122.292-.172.523-.05.231-.073.492-.066.78 0 .1-.012.193-.035.277a.675.675 0 01-.075.186l-.04.05c-.122.128-.3.201-.534.221h-1.157a4.56 4.56 0 01-1.469-.165 5.622 5.622 0 01-1.322-.534c-.38-.218-.725-.439-1.037-.664a5.985 5.985 0 01-.709-.578l-.251-.242a6.31 6.31 0 01-.277-.302 22.151 22.151 0 01-.72-.915 25.032 25.032 0 01-1.066-1.52A30.948 30.948 0 015.792 13.6a33.16 33.16 0 01-1.313-2.737.8.8 0 01-.061-.271c0-.074.01-.128.03-.161l.04-.06c.101-.128.292-.192.574-.192l2.757-.02a1.074 1.074 0 01.392.15l.05.031a.666.666 0 01.242.322c.134.336.288.683.463 1.042.174.358.312.632.412.82l.161.291c.195.403.382.752.563 1.047.182.295.344.525.489.689.144.164.283.294.417.387.134.094.248.141.343.141a.753.753 0 00.271-.05.18.18 0 00.05-.05 1.632 1.632 0 00.257-.694c.03-.195.062-.467.096-.815.033-.35.033-.768 0-1.258a4.716 4.716 0 00-.09-.735 1.945 1.945 0 00-.142-.462l-.06-.12c-.168-.229-.453-.373-.855-.434-.088-.013-.07-.093.05-.24a1.36 1.36 0 01.382-.303c.356-.174 1.157-.254 2.405-.242.55.008 1.003.05 1.358.131.134.034.246.08.337.136.09.057.16.138.207.241.046.104.081.212.105.322.024.111.035.264.035.458 0 .195-.003.38-.01.553l-.025.71c-.01.298-.015.575-.015.83 0 .074-.003.214-.01.422a7.823 7.823 0 00-.005.483c.003.114.015.25.035.408.02.157.059.289.116.392a.664.664 0 00.226.246c.054.014.11.028.172.041.06.013.147-.023.26-.11.115-.088.242-.204.383-.348.141-.144.315-.368.523-.674.208-.304.436-.665.684-1.081.403-.698.761-1.453 1.077-2.264a.68.68 0 01.1-.176.443.443 0 01.11-.106l.041-.03.05-.025a.824.824 0 01.332-.035l2.898-.021c.262-.033.476-.025.644.025.168.05.271.106.312.166l.06.1c.154.43-.348 1.416-1.509 2.958-.16.215-.379.5-.654.856-.523.67-.824 1.11-.904 1.319-.115.274-.068.546.14.814z" fill="currentColor"/></svg></svg>