<?xml version="1.0" encoding="utf-8"?><svg viewBox="0 0 51 51" xmlns="http://www.w3.org/2000/svg" xmlns:xlink="http://www.w3.org/1999/xlink"><style>:root>svg{display:none}:root>svg:target{display:block}</style><svg fill="none" viewBox="0 0 25 24" id="icon-alert-triangle" xmlns="http://www.w3.org/2000/svg"><path d="M12.5 9v4m0 4h.01M11.115 3.892L2.89 18.099c-.456.788-.684 1.182-.65 1.505a1 1 0 00.406.705c.263.191.718.191 1.629.191h16.45c.91 0 1.365 0 1.628-.191a1 1 0 00.407-.705c.034-.323-.195-.717-.65-1.505L13.883 3.892c-.454-.785-.681-1.178-.978-1.31a1 1 0 00-.813 0c-.296.132-.523.525-.978 1.31z" stroke="currentColor" stroke-linecap="round" stroke-linejoin="round"/></svg><svg fill="none" viewBox="0 0 24 25" id="icon-alert-triangle-bold" xmlns="http://www.w3.org/2000/svg"><path d="M12 9.5v4m0 4h.01M10.615 4.392L2.39 18.598c-.456.788-.684 1.182-.65 1.506a1 1 0 00.406.705C2.41 21 2.864 21 3.775 21h16.45c.91 0 1.365 0 1.628-.191a1 1 0 00.407-.705c.034-.324-.195-.718-.65-1.506L13.383 4.392c-.454-.785-.681-1.178-.978-1.31a1 1 0 00-.813 0c-.296.132-.523.525-.978 1.31z" stroke="#961D14" stroke-width="2" stroke-linecap="round" stroke-linejoin="round"/></svg><svg fill="none" viewBox="0 0 25 24" id="icon-arrow-next" xmlns="http://www.w3.org/2000/svg"><path d="M9.5 18l6-6-6-6" stroke="currentColor" stroke-width="2" stroke-linecap="round" stroke-linejoin="round"/></svg><svg fill="none" viewBox="0 0 25 24" id="icon-arrow-prev" xmlns="http://www.w3.org/2000/svg"><path d="M15.5 18l-6-6 6-6" stroke="currentColor" stroke-width="2" stroke-linecap="round" stroke-linejoin="round"/></svg><svg fill="none" viewBox="0 0 24 24" id="icon-arrow-up-right" xmlns="http://www.w3.org/2000/svg"><path d="M7 17L17 7m0 0H7m10 0v10" stroke="currentColor" stroke-linecap="round" stroke-linejoin="round"/></svg><svg fill="none" viewBox="0 0 25 24" id="icon-basket" xmlns="http://www.w3.org/2000/svg"><path d="M2.5 2h1.306c.246 0 .37 0 .468.045a.5.5 0 01.213.185c.059.092.076.213.111.457L5.071 6m0 0l1.052 7.731c.134.982.2 1.472.435 1.841a2 2 0 00.853.745c.398.183.893.183 1.883.183h8.558c.942 0 1.414 0 1.799-.17a2 2 0 00.841-.696c.239-.346.327-.81.503-1.735l1.324-6.95c.062-.325.093-.488.048-.615a.5.5 0 00-.22-.266C22.032 6 21.866 6 21.534 6H5.071zM10.5 21a1 1 0 11-2 0 1 1 0 012 0zm8 0a1 1 0 11-2 0 1 1 0 012 0z" stroke="currentColor" stroke-width="2" stroke-linecap="round" stroke-linejoin="round"/></svg><svg fill="none" viewBox="0 0 24 24" id="icon-bell" xmlns="http://www.w3.org/2000/svg"><path d="M15 17H9m6 0h5l-1.405-1.405A2.032 2.032 0 0118 14.158V11a6.001 6.001 0 00-4-5.659V5a2 2 0 10-4 0v.341C7.67 6.165 6 8.388 6 11v3.159c0 .538-.214 1.055-.595 1.436L4 17h11zm0 0v1a3 3 0 01-6 0v-1h6z" stroke="currentColor" stroke-linecap="round" stroke-linejoin="round"/></svg><svg fill="none" viewBox="0 0 25 24" id="icon-bell-ringing" xmlns="http://www.w3.org/2000/svg"><path d="M16.146 18.016a3 3 0 01-5.796 1.553m-7.793-7.954a4.007 4.007 0 011.052-3.926m9.037-1.947a2.5 2.5 0 10-3.47.93m11.643.05a4.007 4.007 0 00-2.874-2.875m.046 5.6C17.634 8.115 16.68 7 15.34 6.35c-1.339-.65-2.955-.785-4.492-.373-1.537.412-2.87 1.336-3.704 2.57-.834 1.232-1.102 2.673-.745 4.006.59 2.204.475 3.962.103 5.298-.426 1.523-.638 2.284-.58 2.437.065.175.113.223.287.29.152.06.792-.112 2.071-.454l11.865-3.18c1.28-.343 1.92-.514 2.022-.641.117-.146.134-.211.104-.396-.027-.16-.592-.714-1.721-1.82-.991-.97-1.97-2.436-2.56-4.64z" stroke="currentColor" stroke-width="2" stroke-linecap="round" stroke-linejoin="round"/></svg><svg fill="none" viewBox="0 0 43 42" id="icon-bell-ringing-thin" xmlns="http://www.w3.org/2000/svg"><path d="M27.88 31.527a5.25 5.25 0 01-10.143 2.718M4.1 20.325a7.012 7.012 0 011.84-6.87m15.816-3.407a4.375 4.375 0 10-6.073 1.627m20.375.087a7.012 7.012 0 00-5.029-5.03m.08 9.799c-.625-2.331-2.292-4.28-4.636-5.42-2.344-1.138-5.172-1.373-7.862-.652-2.69.72-5.021 2.338-6.481 4.496-1.46 2.158-1.93 4.68-1.306 7.011 1.034 3.857.833 6.934.18 9.272-.743 2.666-1.115 3.998-1.015 4.266.115.306.198.39.503.508.267.103 1.386-.197 3.626-.797l20.764-5.564c2.239-.6 3.358-.9 3.537-1.122.205-.255.235-.37.182-.692-.047-.282-1.035-1.25-3.012-3.186-1.734-1.698-3.447-4.263-4.48-8.12z" stroke="#080957" stroke-width="2" stroke-linecap="round" stroke-linejoin="round"/></svg><svg fill="none" viewBox="0 0 24 24" id="icon-bell-rotate" xmlns="http://www.w3.org/2000/svg"><path d="M14.39 18.016a3 3 0 01-5.795 1.553m2.296-13.827a2.5 2.5 0 10-3.47.93m8.815 2.775c-.357-1.332-1.31-2.446-2.65-3.097-1.339-.65-2.955-.785-4.492-.373-1.537.412-2.869 1.336-3.704 2.57-.834 1.232-1.102 2.673-.745 4.006.59 2.204.476 3.962.103 5.298-.425 1.523-.638 2.284-.58 2.437.065.175.113.223.287.29.152.06.792-.112 2.071-.454l11.866-3.18c1.28-.343 1.919-.514 2.021-.641.117-.146.134-.211.104-.396-.027-.16-.591-.714-1.721-1.82-.991-.97-1.97-2.436-2.56-4.64z" stroke="currentColor" stroke-linecap="round" stroke-linejoin="round"/></svg><svg fill="none" viewBox="0 0 35 35" id="icon-bookmark-gradient" xmlns="http://www.w3.org/2000/svg"><path d="M7.292 11.375c0-2.45 0-3.675.476-4.611A4.375 4.375 0 019.68 4.852c.936-.477 2.161-.477 4.611-.477h6.417c2.45 0 3.676 0 4.611.477a4.375 4.375 0 011.912 1.912c.477.936.477 2.16.477 4.611v19.25L17.5 24.792 7.29 30.625v-19.25z" fill="url(#akpaint0_linear_801_175032)" stroke="url(#akpaint1_linear_801_175032)" stroke-width="2" stroke-linecap="round" stroke-linejoin="round"/><defs><linearGradient id="akpaint0_linear_801_175032" x1="17.142" y1="4.375" x2="7.466" y2="26.369" gradientUnits="userSpaceOnUse"><stop stop-color="#080957"/><stop offset="1" stop-color="#4D5B97"/></linearGradient><linearGradient id="akpaint1_linear_801_175032" x1="17.142" y1="4.375" x2="7.466" y2="26.369" gradientUnits="userSpaceOnUse"><stop stop-color="#080957"/><stop offset="1" stop-color="#4D5B97"/></linearGradient></defs></svg><svg fill="none" viewBox="0 0 24 24" id="icon-card" xmlns="http://www.w3.org/2000/svg"><path d="M22 9H2m0-1.2v8.4c0 1.68 0 2.52.327 3.162a3 3 0 001.311 1.311C4.28 21 5.12 21 6.8 21h10.4c1.68 0 2.52 0 3.162-.327a3 3 0 001.311-1.311C22 18.72 22 17.88 22 16.2V7.8c0-1.68 0-2.52-.327-3.162a3 3 0 00-1.311-1.311C19.72 3 18.88 3 17.2 3H6.8c-1.68 0-2.52 0-3.162.327a3 3 0 00-1.311 1.311C2 5.28 2 6.12 2 7.8z" stroke="currentColor" stroke-width="2" stroke-linecap="round" stroke-linejoin="round"/></svg><svg fill="none" viewBox="0 0 24 24" id="icon-caret" xmlns="http://www.w3.org/2000/svg"><path d="M19 9l-7 7-7-7" stroke="currentColor" stroke-linecap="round" stroke-linejoin="round"/></svg><svg fill="none" viewBox="0 0 24 24" id="icon-caret-blue" xmlns="http://www.w3.org/2000/svg"><path d="M19 9l-7 7-7-7" stroke="#293A80" stroke-linecap="round" stroke-linejoin="round"/></svg><svg fill="none" viewBox="0 0 25 24" id="icon-caret-bold" xmlns="http://www.w3.org/2000/svg"><path d="M19.5 9l-7 7-7-7" stroke="currentColor" stroke-width="3" stroke-linecap="round" stroke-linejoin="round"/></svg><svg fill="none" viewBox="0 0 24 24" id="icon-caret-bold-dark-blue" xmlns="http://www.w3.org/2000/svg"><path d="M9 18l6-6-6-6" stroke="#080957" stroke-width="2" stroke-linecap="round" stroke-linejoin="round"/></svg><svg fill="none" viewBox="0 0 24 24" id="icon-caret-dark-blue" xmlns="http://www.w3.org/2000/svg"><path d="M19 9l-7 7-7-7" stroke="#080957" stroke-linecap="round" stroke-linejoin="round"/></svg><svg fill="none" viewBox="0 0 24 24" id="icon-caret-white" xmlns="http://www.w3.org/2000/svg"><path d="M19 9l-7 7-7-7" stroke="#fff" stroke-linecap="round" stroke-linejoin="round"/></svg><svg fill="none" viewBox="0 0 20 20" id="icon-check-square" xmlns="http://www.w3.org/2000/svg"><path d="M1 5.8c0-1.68 0-2.52.327-3.162a3 3 0 011.311-1.311C3.28 1 4.12 1 5.8 1h8.4c1.68 0 2.52 0 3.162.327a3 3 0 011.311 1.311C19 3.28 19 4.12 19 5.8v8.4c0 1.68 0 2.52-.327 3.162a3 3 0 01-1.311 1.311C16.72 19 15.88 19 14.2 19H5.8c-1.68 0-2.52 0-3.162-.327a3 3 0 01-1.311-1.311C1 16.72 1 15.88 1 14.2V5.8z" stroke="#080957" stroke-linecap="round" stroke-linejoin="round"/></svg><svg fill="none" viewBox="0 0 25 24" id="icon-check-square-bold" xmlns="http://www.w3.org/2000/svg"><path d="M3.55 7.8c0-1.68 0-2.52.328-3.162a3 3 0 011.31-1.311C5.832 3 6.672 3 8.352 3h8.4c1.68 0 2.52 0 3.162.327a3 3 0 011.31 1.311c.328.642.328 1.482.328 3.162v8.4c0 1.68 0 2.52-.327 3.162a3 3 0 01-1.311 1.311C19.27 21 18.43 21 16.75 21h-8.4c-1.68 0-2.52 0-3.162-.327a3 3 0 01-1.311-1.311C3.55 18.72 3.55 17.88 3.55 16.2V7.8z" stroke="#000" stroke-width="2" stroke-linecap="round" stroke-linejoin="round"/></svg><svg fill="none" viewBox="0 0 21 20" id="icon-check-square-bold-checked" xmlns="http://www.w3.org/2000/svg"><path d="M6 10l3 3 6-6M6.3 19h8.4c1.68 0 2.52 0 3.162-.327a3 3 0 001.311-1.311c.327-.642.327-1.482.327-3.162V5.8c0-1.68 0-2.52-.327-3.162a3 3 0 00-1.311-1.311C17.22 1 16.38 1 14.7 1H6.3c-1.68 0-2.52 0-3.162.327a3 3 0 00-1.311 1.311C1.5 3.28 1.5 4.12 1.5 5.8v8.4c0 1.68 0 2.52.327 3.162a3 3 0 001.311 1.311C3.78 19 4.62 19 6.3 19z" stroke="#080957" stroke-width="2" stroke-linecap="round" stroke-linejoin="round"/></svg><svg fill="none" viewBox="0 0 20 20" id="icon-check-square-checked" xmlns="http://www.w3.org/2000/svg"><path d="M5.5 10l3 3 6-6M5.8 19h8.4c1.68 0 2.52 0 3.162-.327a3 3 0 001.311-1.311C19 16.72 19 15.88 19 14.2V5.8c0-1.68 0-2.52-.327-3.162a3 3 0 00-1.311-1.311C16.72 1 15.88 1 14.2 1H5.8c-1.68 0-2.52 0-3.162.327a3 3 0 00-1.311 1.311C1 3.28 1 4.12 1 5.8v8.4c0 1.68 0 2.52.327 3.162a3 3 0 001.311 1.311C3.28 19 4.12 19 5.8 19z" stroke="#080957" stroke-linecap="round" stroke-linejoin="round"/></svg><svg fill="none" viewBox="0 0 24 24" id="icon-circle-done" xmlns="http://www.w3.org/2000/svg"><path d="M7.5 12l3 3 6-6m5.5 3c0 5.523-4.477 10-10 10S2 17.523 2 12 6.477 2 12 2s10 4.477 10 10z" stroke="#2EA72B" stroke-width="2" stroke-linecap="round" stroke-linejoin="round"/></svg><svg fill="none" viewBox="0 0 25 24" id="icon-clock" xmlns="http://www.w3.org/2000/svg"><path d="M12.5 6v6l4 2m6-2c0 5.523-4.477 10-10 10s-10-4.477-10-10 4.477-10 10-10 10 4.477 10 10z" stroke="#080957" stroke-width="2" stroke-linecap="round" stroke-linejoin="round"/></svg><svg fill="none" viewBox="0 0 46 45" id="icon-clock-thin" xmlns="http://www.w3.org/2000/svg"><path d="M23 11.25V22.5l7.5 3.75m11.25-3.75c0 10.355-8.395 18.75-18.75 18.75S4.25 32.855 4.25 22.5 12.645 3.75 23 3.75s18.75 8.395 18.75 18.75z" stroke="#080957" stroke-width="3" stroke-linecap="round" stroke-linejoin="round"/></svg><svg fill="none" viewBox="0 0 21 21" id="icon-close" xmlns="http://www.w3.org/2000/svg"><path d="M15.75 5.25l-10.5 10.5m0-10.5l10.5 10.5" stroke="#080957" stroke-width="2" stroke-linecap="round" stroke-linejoin="round"/></svg><svg fill="none" viewBox="0 0 19 19" id="icon-close-thin" xmlns="http://www.w3.org/2000/svg"><path d="M14.25 4.75l-9.5 9.5m0-9.5l9.5 9.5" stroke="currentColor" stroke-linecap="round" stroke-linejoin="round"/></svg><svg fill="none" viewBox="0 0 24 24" id="icon-coins" xmlns="http://www.w3.org/2000/svg"><path d="M10.101 4A7 7 0 0120 13.899M16 15a7 7 0 11-14 0 7 7 0 0114 0z" stroke="#fff" stroke-linecap="round" stroke-linejoin="round"/></svg><svg fill="none" viewBox="0 0 25 24" id="icon-compass" xmlns="http://www.w3.org/2000/svg"><path d="M12.5 4a2.5 2.5 0 100 5 2.5 2.5 0 000-5zm0 0V2m9 12.938a11.971 11.971 0 01-9 4.062 11.971 11.971 0 01-9-4.063m7.745-6.275L3.5 22M13.755 8.662L21.5 22" stroke="currentColor" stroke-width="2" stroke-linecap="round" stroke-linejoin="round"/></svg><svg fill="none" viewBox="0 0 51 51" id="icon-compass-thin" xmlns="http://www.w3.org/2000/svg"><path d="M25.5 8.835a5.208 5.208 0 100 10.416 5.208 5.208 0 000-10.416zm0 0V4.668m18.75 26.953c-4.58 5.19-11.283 8.464-18.75 8.464-7.467 0-14.17-3.274-18.75-8.464m16.135-13.074L6.75 46.335m21.365-27.788L44.25 46.335" stroke="#080957" stroke-width="2" stroke-linecap="round" stroke-linejoin="round"/></svg><svg fill="none" viewBox="0 0 17 18" id="icon-copy" xmlns="http://www.w3.org/2000/svg"><path d="M3.542 11.125c-.66 0-.99 0-1.251-.108a1.417 1.417 0 01-.767-.766c-.107-.26-.107-.59-.107-1.251V4.183c0-.793 0-1.19.154-1.493.136-.266.352-.483.619-.619.303-.154.7-.154 1.493-.154H8.5c.66 0 .99 0 1.25.108.347.143.623.42.767.766.108.26.108.59.108 1.25M8.642 16.084h4.675c.793 0 1.19 0 1.493-.154.266-.136.483-.353.619-.62.154-.302.154-.699.154-1.492V9.142c0-.794 0-1.19-.154-1.493a1.417 1.417 0 00-.62-.62c-.302-.154-.7-.154-1.492-.154H8.642c-.794 0-1.19 0-1.494.154a1.417 1.417 0 00-.619.62c-.154.303-.154.7-.154 1.493v4.675c0 .793 0 1.19.154 1.493.136.266.353.483.62.619.302.154.7.154 1.493.154z" stroke="#358BDC" stroke-linecap="round" stroke-linejoin="round"/></svg><svg fill="none" viewBox="0 0 24 25" id="icon-discount-white" xmlns="http://www.w3.org/2000/svg"><path d="M9 9.5h.01m5.99 6h.01m.99-7l-8 8m9.901-11.001c.206.498.601.893 1.1 1.1l1.744.723a2.033 2.033 0 011.1 2.656l-.722 1.744a2.03 2.03 0 000 1.556l.722 1.744a2.033 2.033 0 01-1.1 2.656L19 18.401a2.033 2.033 0 00-1.1 1.099l-.723 1.745a2.032 2.032 0 01-2.656 1.1l-1.744-.722a2.032 2.032 0 00-1.555 0l-1.745.723a2.033 2.033 0 01-2.654-1.1L6.1 19.501A2.033 2.033 0 005 18.4l-1.744-.723a2.033 2.033 0 01-1.1-2.654l.721-1.744a2.033 2.033 0 000-1.556l-.722-1.746a2.033 2.033 0 011.1-2.657L5 6.598c.498-.206.893-.6 1.1-1.098l.723-1.745a2.033 2.033 0 012.656-1.1l1.744.722a2.033 2.033 0 001.555-.001l1.746-.72a2.032 2.032 0 012.655 1.1l.723 1.746v-.003zM9.5 9.5a.5.5 0 11-1 0 .5.5 0 011 0zm6 6a.5.5 0 11-1 0 .5.5 0 011 0z" stroke="#fff" stroke-width="2" stroke-linecap="round" stroke-linejoin="round"/></svg><svg fill="none" viewBox="0 0 25 24" id="icon-document" xmlns="http://www.w3.org/2000/svg"><path d="M7.5 21h10a2 2 0 002-2V9.414a1 1 0 00-.293-.707l-5.414-5.414A1 1 0 0013.086 3H7.5a2 2 0 00-2 2v14a2 2 0 002 2z" stroke="currentColor" stroke-width="2" stroke-linecap="round" stroke-linejoin="round"/></svg><svg fill="none" viewBox="0 0 24 24" id="icon-done" xmlns="http://www.w3.org/2000/svg"><path d="M9 11l3 3L22 4m-6-1H7.8c-1.68 0-2.52 0-3.162.327a3 3 0 00-1.311 1.311C3 5.28 3 6.12 3 7.8v8.4c0 1.68 0 2.52.327 3.162a3 3 0 001.311 1.311C5.28 21 6.12 21 7.8 21h8.4c1.68 0 2.52 0 3.162-.327a3 3 0 001.311-1.311C21 18.72 21 17.88 21 16.2V12" stroke="#2EA72B" stroke-width="2" stroke-linecap="round" stroke-linejoin="round"/></svg><svg fill="none" viewBox="0 0 24 24" id="icon-download" xmlns="http://www.w3.org/2000/svg"><path d="M4 16v1a3 3 0 003 3h10a3 3 0 003-3v-1m-4-4l-4 4m0 0l-4-4m4 4V4" stroke="currentColor" stroke-linecap="round" stroke-linejoin="round"/></svg><svg fill="none" viewBox="0 0 36 35" id="icon-download-line" xmlns="http://www.w3.org/2000/svg"><path d="M31.125 30.625H4.875M26.75 16.042L18 24.792m0 0l-8.75-8.75m8.75 8.75V4.375" stroke="currentColor" stroke-width="2" stroke-linecap="round" stroke-linejoin="round"/></svg><svg fill="none" viewBox="0 0 24 24" id="icon-edit" xmlns="http://www.w3.org/2000/svg"><path d="M11.625 5.5H7.95c-1.47 0-2.205 0-2.767.287a2.625 2.625 0 00-1.147 1.147c-.286.561-.286 1.297-.286 2.767v7.35c0 1.47 0 2.205.286 2.766.252.494.653.896 1.147 1.148.562.286 1.297.286 2.767.286h7.35c1.47 0 2.205 0 2.767-.286a2.625 2.625 0 001.147-1.148c.286-.561.286-1.296.286-2.766v-3.675M9 16h1.465c.428 0 .642 0 .844-.049.178-.043.349-.113.506-.21.176-.107.327-.259.63-.561l8.367-8.368a1.856 1.856 0 10-2.625-2.625L9.82 12.556c-.303.302-.454.454-.562.63a1.75 1.75 0 00-.21.506C9 13.893 9 14.107 9 14.536V16z" stroke="currentColor" stroke-linecap="round" stroke-linejoin="round"/></svg><svg fill="none" viewBox="0 0 24 24" id="icon-edit-full" xmlns="http://www.w3.org/2000/svg"><path d="M11 4H6.8c-1.68 0-2.52 0-3.162.327a3 3 0 00-1.311 1.311C2 6.28 2 7.12 2 8.8v8.4c0 1.68 0 2.52.327 3.162a3 3 0 001.311 1.311C4.28 22 5.12 22 6.8 22h8.4c1.68 0 2.52 0 3.162-.327a3 3 0 001.311-1.31C20 19.72 20 18.88 20 17.2V13M8 16h1.675c.489 0 .733 0 .963-.055a2 2 0 00.579-.24c.201-.123.374-.296.72-.642L21.5 5.5a2.121 2.121 0 00-3-3l-9.563 9.563c-.346.346-.519.519-.642.72a2 2 0 00-.24.579c-.055.23-.055.474-.055.964V16z" stroke="#080957" stroke-linecap="round" stroke-linejoin="round"/></svg><svg fill="none" viewBox="0 0 17 17" id="icon-email" xmlns="http://www.w3.org/2000/svg"><path d="M14.834 12.5l-4.43-4m-3.809 0l-4.428 4m-.333-7.333l5.443 3.81c.44.309.66.463.9.523.212.052.434.052.646 0 .24-.06.46-.214.9-.523l5.444-3.81M5.034 13.833h6.933c1.12 0 1.68 0 2.108-.218a2 2 0 00.874-.874c.218-.428.218-.988.218-2.108V6.367c0-1.12 0-1.68-.218-2.108a2 2 0 00-.874-.874c-.428-.218-.988-.218-2.108-.218H5.033c-1.12 0-1.68 0-2.107.218a2 2 0 00-.875.874c-.218.427-.218.988-.218 2.108v4.266c0 1.12 0 1.68.218 2.108a2 2 0 00.875.874c.427.218.987.218 2.107.218z" stroke="#293A80" stroke-linecap="round" stroke-linejoin="round"/></svg><svg fill="none" viewBox="0 0 24 24" id="icon-email-bold" xmlns="http://www.w3.org/2000/svg"><path d="M3 8l7.89 5.26a2 2 0 002.22 0L21 8M5 19h14a2 2 0 002-2V7a2 2 0 00-2-2H5a2 2 0 00-2 2v10a2 2 0 002 2z" stroke="currentColor" stroke-width="2" stroke-linecap="round" stroke-linejoin="round"/></svg><svg fill="none" viewBox="0 0 17 17" id="icon-email-opened" xmlns="http://www.w3.org/2000/svg"><path d="M2.5 12.898V6.944a1.333 1.333 0 01.593-1.11l4.667-3.11a1.333 1.333 0 011.48 0l4.667 3.11a1.334 1.334 0 01.593 1.11v5.954m-12 0a1.333 1.333 0 001.333 1.333h9.334a1.333 1.333 0 001.333-1.333m-12 0l4.5-3m7.5 3l-4.5-3m-3 0l-4.5-3m4.5 3l.76.506a1.333 1.333 0 001.48 0l.76-.506m0 0l4.5-3" stroke="#293A80" stroke-linecap="round" stroke-linejoin="round"/></svg><svg fill="none" viewBox="0 0 19 18" id="icon-eye" xmlns="http://www.w3.org/2000/svg"><path d="M1.916 9.535c-.108-.162-.162-.243-.192-.367a.834.834 0 010-.336c.03-.124.084-.205.192-.367C2.806 7.13 5.459 3.75 9.5 3.75c4.042 0 6.694 3.379 7.585 4.715.107.162.161.243.192.367a.833.833 0 010 .336c-.03.124-.085.205-.192.367-.891 1.336-3.543 4.715-7.585 4.715-4.041 0-6.693-3.379-7.584-4.715z" stroke="#9F9F9F" stroke-linecap="round" stroke-linejoin="round"/><path d="M9.5 11.25c1.312 0 2.375-1.007 2.375-2.25S10.812 6.75 9.5 6.75C8.19 6.75 7.125 7.757 7.125 9S8.19 11.25 9.5 11.25z" stroke="#9F9F9F" stroke-linecap="round" stroke-linejoin="round"/></svg><svg fill="none" viewBox="0 0 24 24" id="icon-favorites" xmlns="http://www.w3.org/2000/svg"><path d="M11.283 3.453c.23-.467.345-.7.502-.775a.5.5 0 01.43 0c.157.075.272.308.502.775l2.187 4.43c.068.138.102.207.152.26a.502.502 0 00.155.114c.067.03.143.042.295.064l4.891.715c.515.075.773.113.892.238a.5.5 0 01.133.41c-.023.172-.21.353-.582.716L17.3 13.846c-.11.108-.165.162-.2.226a.5.5 0 00-.06.183c-.009.072.004.148.03.3l.835 4.867c.088.514.132.77.05.922a.5.5 0 01-.349.253c-.17.032-.4-.09-.862-.332l-4.373-2.3c-.136-.07-.204-.107-.276-.12a.498.498 0 00-.192 0c-.072.013-.14.05-.276.12l-4.373 2.3c-.461.243-.692.364-.862.332a.5.5 0 01-.348-.253c-.083-.152-.039-.409.05-.922l.834-4.867c.026-.152.039-.228.03-.3a.5.5 0 00-.06-.184c-.035-.063-.09-.117-.2-.225L3.16 10.4c-.373-.363-.56-.544-.582-.716a.5.5 0 01.132-.41c.12-.125.377-.163.892-.238l4.891-.715c.152-.022.228-.034.295-.064a.5.5 0 00.155-.113c.05-.054.084-.123.152-.26l2.187-4.43z" stroke="currentColor" stroke-width="2" stroke-linecap="round" stroke-linejoin="round"/></svg><svg fill="none" viewBox="0 0 25 24" id="icon-filter-lines-center" xmlns="http://www.w3.org/2000/svg"><path d="M6.5 12h12m-15-6h18m-12 12h6" stroke="currentColor" stroke-width="2" stroke-linecap="round" stroke-linejoin="round"/></svg><svg fill="none" viewBox="0 0 25 24" id="icon-flash" xmlns="http://www.w3.org/2000/svg"><path d="M13.5 2L4.593 12.688c-.348.418-.523.628-.525.804a.5.5 0 00.185.397c.138.111.41.111.955.111H12.5l-1 8 8.907-10.688c.348-.418.523-.628.525-.804a.5.5 0 00-.185-.397c-.138-.111-.41-.111-.955-.111H12.5l1-8z" stroke="currentColor" stroke-width="2" stroke-linecap="round" stroke-linejoin="round"/></svg><svg fill="none" viewBox="0 0 25 24" id="icon-img-plug" xmlns="http://www.w3.org/2000/svg"><path d="M6.5 20l8.869-8.869c.396-.396.594-.594.822-.668a1 1 0 01.618 0c.228.074.426.272.822.668l4.274 4.274M11 8.5a2 2 0 11-4 0 2 2 0 014 0zM22.5 12c0 5.523-4.477 10-10 10s-10-4.477-10-10 4.477-10 10-10 10 4.477 10 10z" stroke="#080957" stroke-width="2" stroke-linecap="round" stroke-linejoin="round"/></svg><svg fill="none" viewBox="0 0 18 18" id="icon-info-circle" xmlns="http://www.w3.org/2000/svg"><path d="M9 12V9m0-3h.008M16.5 9a7.5 7.5 0 11-15 0 7.5 7.5 0 0115 0z" stroke="currentColor" stroke-linecap="round" stroke-linejoin="round"/></svg><svg fill="none" viewBox="0 0 15 15" id="icon-info-circle-bold" xmlns="http://www.w3.org/2000/svg"><path d="M7.5 10V7.5m0-2.5h.006m6.244 2.5a6.25 6.25 0 11-12.5 0 6.25 6.25 0 0112.5 0z" stroke="currentColor" stroke-linecap="round" stroke-linejoin="round"/></svg><svg fill="none" viewBox="0 0 18 18" id="icon-info-circle-color" xmlns="http://www.w3.org/2000/svg"><path d="M9 12V9m0-3h.008M16.5 9a7.5 7.5 0 11-15 0 7.5 7.5 0 0115 0z" stroke="#293A80" stroke-linecap="round" stroke-linejoin="round"/></svg><svg fill="none" viewBox="0 0 20 19" id="icon-link" xmlns="http://www.w3.org/2000/svg"><path d="M7.625 3.165V1.582m4.75 14.25v1.583M3.667 7.124H2.083m14.25 4.75h1.584M4.39 3.889L3.27 2.77m12.34 12.34l1.12 1.119M10 13.977l-1.68 1.68a3.167 3.167 0 11-4.478-4.479l1.68-1.68m8.956 0l1.68-1.679a3.167 3.167 0 00-4.479-4.478L10 5.021" stroke="currentColor" stroke-linecap="round" stroke-linejoin="round"/></svg><svg fill="none" viewBox="0 0 25 24" id="icon-list" xmlns="http://www.w3.org/2000/svg"><path d="M21.5 12h-12m12-6h-12m12 12h-12m-4-6a1 1 0 11-2 0 1 1 0 012 0zm0-6a1 1 0 11-2 0 1 1 0 012 0zm0 12a1 1 0 11-2 0 1 1 0 012 0z" stroke="currentColor" stroke-width="2" stroke-linecap="round" stroke-linejoin="round"/></svg><svg fill="none" viewBox="0 0 43 42" id="icon-list-thin" xmlns="http://www.w3.org/2000/svg"><path d="M37.25 21h-21m21-10.5h-21m21 21h-21m-7-10.5a1.75 1.75 0 11-3.5 0 1.75 1.75 0 013.5 0zm0-10.5a1.75 1.75 0 11-3.5 0 1.75 1.75 0 013.5 0zm0 21a1.75 1.75 0 11-3.5 0 1.75 1.75 0 013.5 0z" stroke="#080957" stroke-width="2" stroke-linecap="round" stroke-linejoin="round"/></svg><svg fill="none" viewBox="0 0 17 16" id="icon-location" xmlns="http://www.w3.org/2000/svg"><path d="M8.5 8.667a2 2 0 100-4 2 2 0 000 4z" stroke="currentColor" stroke-linecap="round" stroke-linejoin="round"/><path d="M8.5 14.667c2.667-2.666 5.333-5.054 5.333-8a5.333 5.333 0 10-10.666 0c0 2.946 2.666 5.334 5.333 8z" stroke="currentColor" stroke-linecap="round" stroke-linejoin="round"/></svg><svg fill="none" viewBox="0 0 25 26" id="icon-lock" xmlns="http://www.w3.org/2000/svg"><path d="M17.708 11.268V9.185a5.208 5.208 0 00-10.417 0v2.083m5.208 4.688v2.083m-3.333 4.688h6.667c1.75 0 2.625 0 3.293-.341a3.125 3.125 0 001.366-1.366c.34-.668.34-1.543.34-3.293v-1.459c0-1.75 0-2.625-.34-3.293a3.125 3.125 0 00-1.366-1.366c-.668-.34-1.543-.34-3.293-.34H9.166c-1.75 0-2.625 0-3.294.34-.588.3-1.066.777-1.365 1.366-.341.668-.341 1.543-.341 3.293v1.459c0 1.75 0 2.625.34 3.293.3.588.778 1.066 1.366 1.366.669.34 1.544.34 3.294.34z" stroke="currentColor" stroke-linecap="round" stroke-linejoin="round"/></svg><svg fill="none" viewBox="0 0 48 47" id="icon-message-notification" xmlns="http://www.w3.org/2000/svg"><path d="M22.042 7.833h-6.267c-3.29 0-4.936 0-6.192.64a5.875 5.875 0 00-2.568 2.568c-.64 1.257-.64 2.902-.64 6.192v10.184c0 1.82 0 2.731.2 3.479a5.875 5.875 0 004.154 4.154c.748.2 1.658.2 3.48.2v4.574c0 1.043 0 1.565.213 1.833a.98.98 0 00.767.368c.342 0 .75-.326 1.565-.978l4.671-3.737c.954-.764 1.432-1.145 1.963-1.417.471-.24.973-.417 1.492-.523.584-.12 1.195-.12 2.417-.12h2.97c3.29 0 4.935 0 6.192-.64a5.875 5.875 0 002.567-2.568c.64-1.257.64-2.902.64-6.192v-.392m.238-17.862a5.875 5.875 0 11-8.308 8.308 5.875 5.875 0 018.308-8.308z" stroke="#080957" stroke-width="3" stroke-linecap="round" stroke-linejoin="round"/></svg><svg fill="none" viewBox="0 0 24 24" id="icon-minus-dark-blue" xmlns="http://www.w3.org/2000/svg"><path d="M5 12h14" stroke="#080957" stroke-width="2" stroke-linecap="round" stroke-linejoin="round"/></svg><svg fill="none" viewBox="0 0 25 24" id="icon-notes" xmlns="http://www.w3.org/2000/svg"><path d="M20.5 12.5V6.8c0-1.68 0-2.52-.327-3.162a3 3 0 00-1.311-1.311C18.22 2 17.38 2 15.7 2H9.3c-1.68 0-2.52 0-3.162.327a3 3 0 00-1.311 1.311C4.5 4.28 4.5 5.12 4.5 6.8v10.4c0 1.68 0 2.52.327 3.162a3 3 0 001.311 1.311C6.78 22 7.62 22 9.3 22h3.2m2-11h-6m2 4h-2m8-8h-8M15 19l2 2 4.5-4.5" stroke="currentColor" stroke-width="2" stroke-linecap="round" stroke-linejoin="round"/></svg><svg fill="none" viewBox="0 0 35 34" id="icon-notification" xmlns="http://www.w3.org/2000/svg"><path d="M19 26h-4m8-13a6 6 0 10-12 0c0 3.09-.78 5.206-1.65 6.605-.735 1.18-1.102 1.771-1.089 1.936.015.182.054.252.2.36.133.099.732.099 1.928.099H23.61c1.196 0 1.795 0 1.927-.098.147-.11.186-.179.2-.361.014-.165-.353-.755-1.088-1.936C23.78 18.206 23 16.09 23 13z" stroke="currentColor" stroke-linecap="round" stroke-linejoin="round"/></svg><svg fill="none" viewBox="0 0 25 24" id="icon-notification-ringing" xmlns="http://www.w3.org/2000/svg"><path d="M9.854 21c.706.622 1.632 1 2.646 1 1.015 0 1.94-.378 2.646-1M2.794 5.82A4.007 4.007 0 014.826 2.3m17.376 3.52A4.007 4.007 0 0020.17 2.3M18.5 8a6 6 0 10-12 0c0 3.09-.78 5.206-1.65 6.605-.735 1.18-1.102 1.771-1.088 1.936.014.182.053.252.2.36.133.099.73.099 1.927.099h13.222c1.197 0 1.795 0 1.927-.098.147-.11.186-.179.2-.361.014-.165-.353-.755-1.087-1.936C19.28 13.206 18.5 11.09 18.5 8z" stroke="currentColor" stroke-linecap="round" stroke-linejoin="round"/></svg><svg fill="none" viewBox="0 0 29 29" id="icon-ok" xmlns="http://www.w3.org/2000/svg"><path d="M14.66 11.538a2.449 2.449 0 100-4.897 2.449 2.449 0 000 4.897z" fill="currentColor"/><path d="M14.5 0C6.492 0 0 6.492 0 14.5S6.492 29 14.5 29 29 22.508 29 14.5 22.508 0 14.5 0zm.16 4.112a4.977 4.977 0 110 9.954 4.977 4.977 0 010-9.954zm4.424 12.823c-1.058.68-2.508.936-3.455 1.034l.792.792 2.933 2.933a1.141 1.141 0 010 1.614l-.134.134a1.141 1.141 0 01-1.614 0l-2.933-2.932-2.933 2.932a1.141 1.141 0 01-1.614 0l-.134-.134a1.141 1.141 0 010-1.614l2.932-2.933.79-.79c-.946-.095-2.412-.351-3.479-1.036-1.249-.802-1.802-1.278-1.312-2.262.28-.564 1.059-1.034 2.093-.219 1.398 1.102 3.644 1.102 3.644 1.102s2.245 0 3.643-1.102c1.035-.815 1.813-.345 2.094.22.49.984-.064 1.46-1.313 2.261z" fill="currentColor"/></svg><svg fill="none" viewBox="0 0 24 25" id="icon-plus" xmlns="http://www.w3.org/2000/svg"><path d="M20 12.5H4m8-8v16-16z" stroke="#F9F9F9" stroke-linecap="round" stroke-linejoin="round"/></svg><svg fill="none" viewBox="0 0 24 24" id="icon-search" xmlns="http://www.w3.org/2000/svg"><path d="M21 21l-3.5-3.5m2.5-6a8.5 8.5 0 11-17 0 8.5 8.5 0 0117 0z" stroke="currentColor" stroke-width="2" stroke-linecap="round" stroke-linejoin="round"/></svg><svg fill="none" viewBox="0 0 24 24" id="icon-settings" xmlns="http://www.w3.org/2000/svg"><path d="M12 15a3 3 0 100-6 3 3 0 000 6z" stroke="currentColor" stroke-width="2" stroke-linecap="round" stroke-linejoin="round"/><path d="M9.29 19.371l.584 1.315a2.213 2.213 0 004.044 0l.585-1.315a2.426 2.426 0 012.47-1.423l1.43.152a2.212 2.212 0 002.022-3.502l-.847-1.164a2.428 2.428 0 01-.46-1.434c0-.513.163-1.014.465-1.429l.847-1.163a2.212 2.212 0 00-2.023-3.502l-1.43.152a2.433 2.433 0 01-1.47-.312 2.425 2.425 0 01-1-1.117l-.588-1.315a2.212 2.212 0 00-4.045 0L9.29 4.63c-.207.468-.558.86-1 1.117-.445.256-.96.365-1.47.312l-1.435-.152a2.212 2.212 0 00-2.022 3.502l.847 1.163a2.43 2.43 0 010 2.858l-.847 1.163a2.21 2.21 0 00.786 3.273c.381.195.81.274 1.236.23l1.43-.153a2.434 2.434 0 012.475 1.43z" stroke="currentColor" stroke-width="2" stroke-linecap="round" stroke-linejoin="round"/></svg><svg fill="none" viewBox="0 0 24 24" id="icon-share" xmlns="http://www.w3.org/2000/svg"><path d="M20.791 12.607c.244-.209.366-.313.411-.438a.5.5 0 000-.338c-.045-.124-.167-.23-.41-.438L12.32 4.132c-.42-.36-.63-.54-.809-.545a.5.5 0 00-.4.184C11 3.91 11 4.186 11 4.74v4.296a9.666 9.666 0 00-8 9.516v.612a11.401 11.401 0 018-4.093v4.19c0 .554 0 .83.112.969a.5.5 0 00.4.184c.178-.005.388-.185.809-.545l8.47-7.26z" stroke="currentColor" stroke-linecap="round" stroke-linejoin="round"/></svg><svg fill="none" viewBox="0 0 25 24" id="icon-star" xmlns="http://www.w3.org/2000/svg"><path d="M11.783 3.453c.23-.467.345-.7.502-.775a.5.5 0 01.43 0c.157.074.272.308.502.775l2.187 4.43c.068.137.102.206.152.26a.501.501 0 00.155.113c.067.03.143.042.295.064l4.891.715c.515.075.773.113.892.239a.5.5 0 01.133.409c-.023.172-.21.353-.582.717L17.8 13.846c-.11.107-.165.16-.2.225a.5.5 0 00-.06.183c-.009.072.004.148.03.3l.835 4.867c.088.514.132.77.05.923a.5.5 0 01-.349.253c-.17.031-.4-.09-.862-.332l-4.373-2.3c-.136-.072-.204-.107-.276-.121a.498.498 0 00-.192 0c-.072.014-.14.05-.276.121l-4.373 2.3c-.461.242-.692.363-.862.332a.5.5 0 01-.348-.253c-.083-.153-.039-.41.05-.923l.834-4.867c.026-.152.039-.228.03-.3a.5.5 0 00-.06-.183c-.035-.064-.09-.118-.2-.225L3.66 10.4c-.373-.364-.56-.545-.582-.717a.5.5 0 01.132-.41c.12-.125.377-.163.892-.238l4.891-.715c.152-.022.228-.033.295-.064a.5.5 0 00.155-.113c.05-.054.084-.123.152-.26l2.187-4.43z" stroke="currentColor" stroke-linecap="round" stroke-linejoin="round"/></svg><svg fill="none" viewBox="0 0 24 24" id="icon-star-bold" xmlns="http://www.w3.org/2000/svg"><path d="M11.283 3.454c.23-.467.345-.7.502-.775a.5.5 0 01.43 0c.157.074.272.308.502.775l2.187 4.43c.068.137.102.206.152.26a.502.502 0 00.155.113c.067.03.143.042.295.064l4.891.715c.515.075.773.113.892.239a.5.5 0 01.133.409c-.023.172-.21.353-.582.717L17.3 13.847c-.11.107-.165.16-.2.225a.5.5 0 00-.06.183c-.009.072.004.148.03.3l.835 4.867c.088.514.132.77.05.923a.5.5 0 01-.349.253c-.17.031-.4-.09-.862-.332l-4.373-2.3c-.136-.072-.204-.107-.276-.122a.502.502 0 00-.192 0c-.072.015-.14.05-.276.122l-4.373 2.3c-.461.242-.692.363-.862.332a.5.5 0 01-.348-.253c-.083-.153-.039-.41.05-.923l.834-4.867c.026-.152.039-.228.03-.3a.5.5 0 00-.06-.183c-.035-.064-.09-.118-.2-.225L3.16 10.4c-.373-.364-.56-.545-.582-.717a.5.5 0 01.132-.41c.12-.125.377-.163.892-.238l4.891-.715c.152-.022.228-.033.295-.064a.5.5 0 00.155-.113c.05-.054.084-.123.152-.26l2.187-4.43z" stroke="currentColor" stroke-width="2" stroke-linecap="round" stroke-linejoin="round"/></svg><svg fill="none" viewBox="0 0 24 24" id="icon-star-filled-orange" xmlns="http://www.w3.org/2000/svg"><path d="M11.283 3.453c.23-.467.345-.7.502-.775a.5.5 0 01.43 0c.157.074.272.308.502.775l2.187 4.43c.068.137.102.206.152.26a.501.501 0 00.155.113c.067.03.143.042.295.064l4.891.715c.515.075.773.113.892.239a.5.5 0 01.133.409c-.023.172-.21.353-.582.717L17.3 13.846c-.11.107-.165.16-.2.225a.5.5 0 00-.06.183c-.009.072.004.148.03.3l.835 4.867c.088.514.132.77.05.923a.5.5 0 01-.349.253c-.17.031-.4-.09-.862-.332l-4.373-2.3c-.136-.072-.204-.107-.276-.121a.498.498 0 00-.192 0c-.072.014-.14.05-.276.121l-4.373 2.3c-.461.242-.692.363-.862.332a.5.5 0 01-.348-.253c-.083-.153-.039-.41.05-.923l.834-4.867c.026-.152.039-.228.03-.3a.5.5 0 00-.06-.183c-.035-.064-.09-.118-.2-.225L3.16 10.4c-.373-.364-.56-.545-.582-.717a.5.5 0 01.132-.41c.12-.125.377-.163.892-.238l4.891-.715c.152-.022.228-.033.295-.064a.5.5 0 00.155-.113c.05-.054.084-.123.152-.26l2.187-4.43z" fill="#FF6D02" stroke="#FF6D02" stroke-width="2" stroke-linecap="round" stroke-linejoin="round"/></svg><svg fill="none" viewBox="0 0 24 24" id="icon-star-orange" xmlns="http://www.w3.org/2000/svg"><path d="M11.283 3.453c.23-.467.345-.7.502-.775a.5.5 0 01.43 0c.157.074.272.308.502.775l2.187 4.43c.068.137.102.206.152.26a.501.501 0 00.155.113c.067.03.143.042.295.064l4.891.715c.515.075.773.113.892.239a.5.5 0 01.133.409c-.023.172-.21.353-.582.717L17.3 13.846c-.11.107-.165.16-.2.225a.5.5 0 00-.06.183c-.009.072.004.148.03.3l.835 4.867c.088.514.132.77.05.923a.5.5 0 01-.349.253c-.17.031-.4-.09-.862-.332l-4.373-2.3c-.136-.072-.204-.107-.276-.121a.498.498 0 00-.192 0c-.072.014-.14.05-.276.121l-4.373 2.3c-.461.242-.692.363-.862.332a.5.5 0 01-.348-.253c-.083-.153-.039-.41.05-.923l.834-4.867c.026-.152.039-.228.03-.3a.5.5 0 00-.06-.183c-.035-.064-.09-.118-.2-.225L3.16 10.4c-.373-.364-.56-.545-.582-.717a.5.5 0 01.132-.41c.12-.125.377-.163.892-.238l4.891-.715c.152-.022.228-.033.295-.064a.5.5 0 00.155-.113c.05-.054.084-.123.152-.26l2.187-4.43z" stroke="#FF6D02" stroke-width="2" stroke-linecap="round" stroke-linejoin="round"/></svg><svg fill="none" viewBox="0 0 15 16" id="icon-thumbs-down" xmlns="http://www.w3.org/2000/svg"><path d="M10.625 1.75v6.875m3.125-2V3.75c0-.7 0-1.05-.136-1.317a1.25 1.25 0 00-.547-.547c-.267-.136-.617-.136-1.317-.136H5.074c-.914 0-1.37 0-1.74.167a1.875 1.875 0 00-.796.683c-.221.34-.29.791-.43 1.694l-.326 2.125c-.184 1.19-.275 1.786-.098 2.25.155.406.446.746.825.96.43.246 1.033.246 2.238.246h.503c.35 0 .525 0 .659.068.117.06.213.156.273.273.068.134.068.309.068.659v1.834c0 .851.69 1.541 1.541 1.541.203 0 .387-.12.47-.305l2.1-4.726c.095-.215.143-.323.219-.401a.624.624 0 01.24-.156c.102-.037.22-.037.455-.037h.475c.7 0 1.05 0 1.317-.136a1.25 1.25 0 00.547-.547c.136-.267.136-.617.136-1.317z" stroke="currentColor" stroke-linecap="round" stroke-linejoin="round"/></svg><svg fill="none" viewBox="0 0 15 16" id="icon-thumbs-up" xmlns="http://www.w3.org/2000/svg"><path d="M4.375 14.25V7.375M1.25 8.625V13c0 .69.56 1.25 1.25 1.25h8.391c.926 0 1.713-.675 1.854-1.59l.673-4.375a1.875 1.875 0 00-1.853-2.16h-2.19A.625.625 0 018.75 5.5V3.291c0-.851-.69-1.541-1.541-1.541a.514.514 0 00-.47.305L4.54 7.004a.625.625 0 01-.571.371H2.5c-.69 0-1.25.56-1.25 1.25z" stroke="currentColor" stroke-linecap="round" stroke-linejoin="round"/></svg><svg fill="none" viewBox="0 0 24 24" id="icon-time" xmlns="http://www.w3.org/2000/svg"><path d="M12 6v6l4 2m6-2c0 5.523-4.477 10-10 10S2 17.523 2 12 6.477 2 12 2s10 4.477 10 10z" stroke="currentColor" stroke-width="2" stroke-linecap="round" stroke-linejoin="round"/></svg><svg fill="none" viewBox="0 0 25 24" id="icon-tranding-down" xmlns="http://www.w3.org/2000/svg"><path d="M21.5 17l-8-8-4 4-6-6m10 10h8-8zm8 0V9v8z" stroke="#248222" stroke-width="2" stroke-linecap="round" stroke-linejoin="round"/></svg><svg fill="none" viewBox="0 0 25 24" id="icon-tranding-up" xmlns="http://www.w3.org/2000/svg"><path d="M21.5 7l-8 8-4-4-6 6m10-10h8-8zm8 0v8-8z" stroke="#961D14" stroke-width="2" stroke-linecap="round" stroke-linejoin="round"/></svg><svg fill="none" viewBox="0 0 24 24" id="icon-tranding-up-blue" xmlns="http://www.w3.org/2000/svg"><path d="M21 7l-8 8-4-4-6 6M13 7h8-8zm8 0v8-8z" stroke="#080957" stroke-linecap="round" stroke-linejoin="round"/></svg><svg fill="none" viewBox="0 0 39 39" id="icon-tranding-up-blue-bold" xmlns="http://www.w3.org/2000/svg"><path d="M34.125 11.375l-13 13-6.5-6.5-9.75 9.75m16.25-16.25h13-13zm13 0v13-13z" stroke="#080957" stroke-width="2" stroke-linecap="round" stroke-linejoin="round"/></svg><svg fill="none" viewBox="0 0 25 24" id="icon-trash-thin" xmlns="http://www.w3.org/2000/svg"><path d="M16.5 6v-.8c0-1.12 0-1.68-.218-2.108a2 2 0 00-.874-.874C14.98 2 14.42 2 13.3 2h-1.6c-1.12 0-1.68 0-2.108.218a2 2 0 00-.874.874C8.5 3.52 8.5 4.08 8.5 5.2V6m2 5.5v5m4-5v5M3.5 6h18m-2 0v11.2c0 1.68 0 2.52-.327 3.162a3 3 0 01-1.311 1.311C17.22 22 16.38 22 14.7 22h-4.4c-1.68 0-2.52 0-3.162-.327a3 3 0 01-1.311-1.311C5.5 19.72 5.5 18.88 5.5 17.2V6" stroke="currentColor" stroke-linecap="round" stroke-linejoin="round"/></svg><svg fill="none" viewBox="0 0 25 24" id="icon-verified-orange" xmlns="http://www.w3.org/2000/svg"><path d="M9.5 12l2 2L16 9.5m2.401-4.501c.206.498.601.893 1.1 1.1l1.744.723a2.033 2.033 0 011.1 2.656l-.722 1.744a2.03 2.03 0 000 1.556l.722 1.744a2.033 2.033 0 01-1.1 2.656l-1.745.723A2.033 2.033 0 0018.4 19l-.723 1.745a2.032 2.032 0 01-2.656 1.1l-1.744-.722a2.032 2.032 0 00-1.555 0l-1.745.723a2.033 2.033 0 01-2.654-1.1L6.6 19.001A2.033 2.033 0 005.5 17.9l-1.744-.723a2.033 2.033 0 01-1.1-2.654l.721-1.744a2.033 2.033 0 000-1.556l-.722-1.746a2.033 2.033 0 011.1-2.657L5.5 6.098c.498-.206.893-.6 1.1-1.098l.723-1.745a2.033 2.033 0 012.656-1.1l1.744.722a2.033 2.033 0 001.555-.001l1.746-.72a2.032 2.032 0 012.655 1.1l.723 1.746v-.003z" stroke="#FF6D02" stroke-width="2" stroke-linecap="round" stroke-linejoin="round"/></svg><svg fill="none" viewBox="0 0 24 24" id="icon-view-all" xmlns="http://www.w3.org/2000/svg"><path d="M9 18l6-6-6-6" stroke="currentColor" stroke-linecap="round" stroke-linejoin="round"/></svg><svg fill="none" viewBox="0 0 24 24" id="icon-view-all-up" xmlns="http://www.w3.org/2000/svg"><path d="M7 17L17 7m0 0H7m10 0v10" stroke="currentColor" stroke-linecap="round" stroke-linejoin="round"/></svg><svg fill="none" viewBox="0 0 29 29" id="icon-vk" xmlns="http://www.w3.org/2000/svg"><path d="M14.5 0C6.492 0 0 6.492 0 14.5S6.492 29 14.5 29 29 22.508 29 14.5 22.508 0 14.5 0zm6.288 16.417c.114.14.385.416.815.825h.01l.01.01.01.01.02.02c.946.879 1.586 1.62 1.922 2.224.02.033.042.075.065.125s.047.14.07.267a.785.785 0 01-.005.342c-.026.1-.11.193-.251.277-.14.084-.339.125-.594.125l-2.575.04c-.161.034-.349.018-.564-.05a2.46 2.46 0 01-.523-.22l-.201-.122a4.714 4.714 0 01-.704-.644 17.81 17.81 0 01-.69-.78 3.35 3.35 0 00-.614-.583c-.218-.158-.407-.21-.568-.156a.798.798 0 00-.08.035 1.288 1.288 0 00-.387.443c-.065.117-.122.292-.172.523-.05.231-.073.492-.066.78 0 .1-.012.193-.035.277a.675.675 0 01-.075.186l-.04.05c-.122.128-.3.201-.534.221h-1.157a4.56 4.56 0 01-1.469-.165 5.622 5.622 0 01-1.322-.534c-.38-.218-.725-.439-1.037-.664a5.985 5.985 0 01-.709-.578l-.251-.242a6.31 6.31 0 01-.277-.302 22.151 22.151 0 01-.72-.915 25.032 25.032 0 01-1.066-1.52A30.948 30.948 0 015.792 13.6a33.16 33.16 0 01-1.313-2.737.8.8 0 01-.061-.271c0-.074.01-.128.03-.161l.04-.06c.101-.128.292-.192.574-.192l2.757-.02a1.074 1.074 0 01.392.15l.05.031a.666.666 0 01.242.322c.134.336.288.683.463 1.042.174.358.312.632.412.82l.161.291c.195.403.382.752.563 1.047.182.295.344.525.489.689.144.164.283.294.417.387.134.094.248.141.343.141a.753.753 0 00.271-.05.18.18 0 00.05-.05 1.632 1.632 0 00.257-.694c.03-.195.062-.467.096-.815.033-.35.033-.768 0-1.258a4.716 4.716 0 00-.09-.735 1.945 1.945 0 00-.142-.462l-.06-.12c-.168-.229-.453-.373-.855-.434-.088-.013-.07-.093.05-.24a1.36 1.36 0 01.382-.303c.356-.174 1.157-.254 2.405-.242.55.008 1.003.05 1.358.131.134.034.246.08.337.136.09.057.16.138.207.241.046.104.081.212.105.322.024.111.035.264.035.458 0 .195-.003.38-.01.553l-.025.71c-.01.298-.015.575-.015.83 0 .074-.003.214-.01.422a7.823 7.823 0 00-.005.483c.003.114.015.25.035.408.02.157.059.289.116.392a.664.664 0 00.226.246c.054.014.11.028.172.041.06.013.147-.023.26-.11.115-.088.242-.204.383-.348.141-.144.315-.368.523-.674.208-.304.436-.665.684-1.081.403-.698.761-1.453 1.077-2.264a.68.68 0 01.1-.176.443.443 0 01.11-.106l.041-.03.05-.025a.824.824 0 01.332-.035l2.898-.021c.262-.033.476-.025.644.025.168.05.271.106.312.166l.06.1c.154.43-.348 1.416-1.509 2.958-.16.215-.379.5-.654.856-.523.67-.824 1.11-.904 1.319-.115.274-.068.546.14.814z" fill="currentColor"/></svg><svg fill="none" viewBox="0 0 25 24" id="icon-warning" xmlns="http://www.w3.org/2000/svg"><path d="M12.5 16v-4m0-4h.01M3.5 7.943v8.117c0 .343 0 .514.05.667a1 1 0 00.215.364c.109.118.258.201.558.368l7.4 4.11c.284.158.425.237.575.268.133.027.27.027.403 0 .15-.03.292-.11.576-.267l7.4-4.111c.3-.167.45-.25.558-.368a1 1 0 00.215-.364c.05-.153.05-.324.05-.667V7.942c0-.343 0-.514-.05-.667a1 1 0 00-.215-.364c-.109-.118-.258-.201-.558-.368l-7.4-4.11c-.284-.158-.425-.237-.575-.268a1 1 0 00-.403 0c-.15.03-.292.11-.576.267l-7.4 4.111c-.3.167-.45.25-.558.368a1 1 0 00-.215.364c-.05.153-.05.324-.05.667z" stroke="#CA3227" stroke-width="2" stroke-linecap="round" stroke-linejoin="round"/></svg></svg>