<svg width="84" height="28" fill="none" xmlns="http://www.w3.org/2000/svg"><g clip-path="url(#clip0_704_98484)"><path d="M30.557 25.852L34.79 2.279h6.615l-4.101 23.573h-6.747z" fill="#3C58BF"/><path d="M30.557 25.852l5.424-23.573h5.424l-4.101 23.573h-6.747z" fill="#293688"/><path d="M61.247 2.54c-1.323-.523-3.44-1.047-6.085-1.047-6.614 0-11.376 3.274-11.376 7.989 0 3.536 3.307 5.37 5.953 6.548 2.645 1.178 3.439 1.964 3.439 3.012 0 1.571-2.117 2.357-3.969 2.357-2.645 0-4.1-.393-6.35-1.31l-.925-.392-.926 5.369c1.587.655 4.497 1.31 7.54 1.31 7.01 0 11.64-3.274 11.64-8.25 0-2.751-1.719-4.846-5.687-6.549-2.381-1.178-3.837-1.833-3.837-3.012 0-1.048 1.191-2.095 3.837-2.095 2.248 0 3.836.393 5.026.916l.662.262 1.058-5.107z" fill="#3C58BF"/><path d="M61.247 2.54c-1.323-.523-3.44-1.047-6.085-1.047-6.614 0-10.186 3.274-10.186 7.989 0 3.536 2.117 5.37 4.763 6.548 2.645 1.178 3.439 1.964 3.439 3.012 0 1.571-2.117 2.357-3.969 2.357-2.645 0-4.1-.393-6.35-1.31l-.925-.392-.926 5.369c1.587.655 4.497 1.31 7.54 1.31 7.01 0 11.64-3.274 11.64-8.25 0-2.751-1.719-4.846-5.687-6.549-2.381-1.178-3.837-1.833-3.837-3.012 0-1.048 1.191-2.095 3.837-2.095 2.248 0 3.836.393 5.026.916l.662.262 1.058-5.107z" fill="#293688"/><path d="M72.623 2.279c-1.587 0-2.778.13-3.44 1.702l-9.92 21.87h7.143l1.323-3.928h8.466l.794 3.929h6.35L77.781 2.279h-5.159zm-3.042 15.715c.397-1.179 2.645-6.94 2.645-6.94s.53-1.441.926-2.358l.397 2.226s1.323 5.893 1.588 7.203H69.58v-.131z" fill="#3C58BF"/><path d="M74.21 2.279c-1.587 0-2.777.13-3.439 1.702l-11.508 21.87h7.143l1.323-3.928h8.466l.794 3.929h6.35L77.781 2.279H74.21zm-4.63 15.715c.53-1.31 2.646-6.94 2.646-6.94s.53-1.441.926-2.358l.397 2.226s1.323 5.893 1.588 7.203H69.58v-.131z" fill="#293688"/><path d="M18.387 18.78l-.661-3.405c-1.19-3.929-5.027-8.25-9.26-10.346l5.953 20.954h7.143L32.277 2.41h-7.143l-6.747 16.37z" fill="#3C58BF"/><path d="M18.387 18.78l-.661-3.405c-1.19-3.929-5.027-8.25-9.26-10.346l5.953 20.954h7.143L32.277 2.41h-5.82l-8.07 16.37z" fill="#293688"/><path d="M0 2.279l1.19.262c8.467 1.964 14.287 6.94 16.536 12.834L15.345 4.243c-.397-1.571-1.588-1.964-3.043-1.964H0z" fill="#FFBC00"/><path d="M0 2.279C8.466 4.243 15.477 9.35 17.726 15.244l-2.249-9.298c-.397-1.572-1.72-2.489-3.175-2.489L0 2.28z" fill="#F7981D"/><path d="M0 2.279C8.466 4.243 15.477 9.35 17.726 15.244l-1.587-5.108c-.397-1.571-.926-3.143-2.778-3.797L0 2.279z" fill="#ED7C00"/><path d="M25.002 17.994l-4.498-4.452-2.117 4.976-.529-3.274c-1.19-3.928-5.027-8.25-9.26-10.346l5.953 20.954h7.143l3.308-7.858zm12.302 7.858l-5.688-5.762-1.059 5.762h6.747zm15.212-8.12c.53.524.794.917.662 1.441 0 1.572-2.117 2.357-3.969 2.357-2.645 0-4.1-.393-6.35-1.31l-.925-.392-.926 5.37c1.587.654 4.497 1.309 7.54 1.309 4.233 0 7.672-1.179 9.657-3.274l-5.689-5.5zm7.673 8.12h6.217l1.323-3.929h8.466l.794 3.93h6.35l-2.25-9.561-7.937-7.596.397 2.096s1.323 5.893 1.588 7.202H69.58c.529-1.31 2.645-6.94 2.645-6.94s.53-1.441.926-2.358" fill="#051244"/></g><defs><clipPath id="clip0_704_98484"><path fill="#fff" transform="translate(0 .249)" d="M0 0h83.338v27.502H0z"/></clipPath></defs></svg>